<?xml version="1.0" encoding="UTF-8"?>
<svg id="_Слой_1" data-name="Слой 1" xmlns="http://www.w3.org/2000/svg" viewBox="0 0 350.77 345.12">
  <defs>
    <style>
      .cls-1 {
        fill: #ffb100;
      }

      .cls-2 {
        stroke: #807f34;
      }

      .cls-2, .cls-3, .cls-4, .cls-5 {
        fill: none;
        stroke-width: 2px;
      }

      .cls-3 {
        stroke: #ff8e26;
      }

      .cls-4 {
        stroke: #ffd56d;
      }

      .cls-6 {
        fill: #004d67;
      }

      .cls-7 {
        fill: #ff6a4b;
      }

      .cls-5 {
        stroke: #ffb193;
      }
    </style>
  </defs>
  <g>
    <path class="cls-5" d="m350.36,158.11l-3.73.42c-.41.05-.6.28-.55.7.9,7.7,1.72,19.47-8.27,21.87-3.61.87-6.76.12-9.45-2.25-1.71-1.51-3.04-3.35-3.99-5.51" vector-effect="non-scaling-stroke"/>
    <path class="cls-4" d="m324.37,173.34c-.62-21.94-5.81-42.46-15.58-61.56-2.95-5.77-6.47-11.43-10.56-16.96-16.17-21.89-36.61-38.59-61.31-50.1-5.95-2.77-12.18-5.14-18.68-7.09-27.25-8.21-54.68-8.58-82.27-1.11-27.36,7.39-51.02,22.19-71.11,43.29-15.68,16.46-26.56,35.18-32.64,56.15-3.17,10.94-5.27,21.25-5.37,32.25,0,1.24.19,2.55.59,3.94" vector-effect="non-scaling-stroke"/>
    <path class="cls-5" d="m27.44,172.15c-.89,3.3-2.59,6.34-5.09,9.13-6.24,6.96-16.45,3.59-18.54-5.36-1.19-5.1-.72-10.2-.67-15.27" vector-effect="non-scaling-stroke"/>
    <path class="cls-3" d="m324.37,173.34c-3.14-1.83-6.29-3.56-9.46-5.19-8.02-4.14-16.19-5.73-24.52-4.76-1.9.22-3.77.66-5.61,1.33-2.02.73-4.03,1.49-6.04,2.27-2.07.8-4.07,1.92-6.02,3.35-2.15,1.58-3.94,3.21-5.37,4.9-.87,1.03-1.76,2.05-2.67,3.07-.91,1.03-1.71,2.13-2.4,3.31-.82,1.43-1.49,2.83-2.01,4.22-.98,2.62-1.81,5.53-2.49,8.73-.5,2.35-.74,4.83-.72,7.42.02,3.26.36,6.02,1.03,8.28.97,3.27,2.39,6.62,4.28,10.04,1.82,3.32,4.06,6.16,6.72,8.52,5.23,4.64,11.16,7.5,17.79,8.58,3.81.62,7.83.51,11.69.36,1.48-.06,3.13-.38,4.95-.97.7-.23,1.37-.14,2.04.13.46.19.69.72.5,1.19-1.23,3.01-2.88,5.84-4.93,8.5-7.59,9.83-15.72,18.72-24.38,26.67-3.35,3.07-6.9,5.94-10.67,8.6-5.18,3.65-8.99,6.21-11.43,7.67-4.73,2.83-10.2,5.72-16.41,8.65-5.87,2.77-11.53,4.96-16.96,6.56-9.64,2.85-17.9,4.75-24.77,5.71-19.96,2.8-40.1,1.71-60.43-3.26-3.83-.93-8.1-2.24-12.79-3.91-4.59-1.63-8.74-3.29-12.45-4.98-27.06-12.29-48.28-31.02-63.65-56.19-4.28-7.01-7.14-13.56-8.57-19.66-.65-2.77-.94-6.33-.85-10.7.12-5.8,3.24-10.93,7.51-14.77,2.41-2.17,4.85-3.44,7.3-3.83,4.35-.69,8.1.4,11.25,3.25,2.33,2.12,4.42,4.62,4.84,7.93.91,7.07-3.32,10.13-8.68,13.13-1.3.72-2.26,1.59-2.89,2.6-1.92,3.1-2.4,6.06-1.44,8.89,1.37,4.06,4.43,6.47,9.18,7.24,3.07.49,7,.74,9.99-.37,6.21-2.29,11.07-6.47,14.57-12.55,3.3-5.74,5.08-11.57,5.35-17.48.28-6.19-.83-11.96-3.32-17.31-3.21-6.91-7.99-12.45-14.33-16.63-9.37-6.19-19.28-8.46-29.73-6.81-6.41,1.01-12.49,3.56-18.25,7.66-.25.18-.52.21-.81.09-.51-.21-.8-.44-.87-.67" vector-effect="non-scaling-stroke"/>
    <path class="cls-2" d="m96.1,104c-10.8,1.78-19.55,7.77-25.77,16.66-2.43,3.47-4.79,8.29-4.78,12.63.01,1.8.16,3.19.47,4.17,2.8,9.06,14.69,10.87,19.47,2.32,1.08-1.93,1.31-4.08,2.65-5.95,3.5-4.88,7.98-7.5,13.45-7.86,6.89-.46,12.13,1.8,15.71,6.79,1.78,2.49,2.61,5.7,4.3,8.33,2.58,4.04,8.37,5.74,12.65,3.47,3.21-1.69,5.21-4.25,6-7.66,1.68-7.18-3.32-14.85-7.78-20.14-9.05-10.75-22.54-15.03-36.37-12.76" vector-effect="non-scaling-stroke"/>
    <path class="cls-2" d="m261.27,133.31c1.13,1.58,1.91,3.75,2.62,5.57,1.7,4.43,5.88,7.25,10.58,6.77,8.67-.88,12.24-8.27,9.47-16.1-5.15-14.57-18.63-24.71-33.83-26.01-6.08-.51-11.32-.05-15.71,1.4-11.01,3.62-19.01,10.88-24.02,21.79-3.82,8.31,0,19.16,10.57,18.72,4.19-.18,7.66-3.24,8.98-7.31,4.62-14.27,22.79-16.83,31.34-4.83" vector-effect="non-scaling-stroke"/>
    <path class="cls-2" d="m190.48,164.96c3.62-8.13-.17-17.73-8.48-21.43-8.3-3.69-17.97-.09-21.6,8.04-3.62,8.13.17,17.73,8.48,21.43,8.3,3.69,17.97.09,21.6-8.04" vector-effect="non-scaling-stroke"/>
    <path class="cls-2" d="m131.01,210.59c11.39,10.62,26.25,15.47,41.43,16.61,4.03.31,8.36.07,13-.7,17.4-2.9,31.36-10.83,41.89-23.8,2.51-3.1,4.07-6.02,4.67-8.77,1.21-5.59-.26-9.98-4.42-13.16-5.42-4.13-11.49-1.68-14.85,3.68-10.44,16.72-27.93,22.98-46.99,19.4-10.25-1.92-20.21-7.93-25.82-16.91-4.03-6.47-10.06-10.77-17.47-6.07-8.31,5.27-2.75,16.6,1.75,22.14,2.76,3.39,5.03,5.92,6.81,7.58" vector-effect="non-scaling-stroke"/>
    <path class="cls-3" d="m299.39,214.91c6.06-2.23,9.1-9.13,6.79-15.42-2.31-6.29-9.1-9.58-15.17-7.34-6.06,2.23-9.1,9.13-6.79,15.42,2.31,6.29,9.1,9.58,15.17,7.34" vector-effect="non-scaling-stroke"/>
  </g>
  <path class="cls-7" d="m350.36,158.11l-.87,11.67c-.41.05-2.1,9.03-12.09,11.43-3.61.87-6.76.12-9.45-2.25-1.71-1.51-3.04-3.35-3.99-5.51-.62-21.94-5.81-42.46-15.58-61.56-2.95-5.77-6.47-11.43-10.56-16.96-16.17-21.89-36.61-38.59-61.31-50.1-5.95-2.77-12.18-5.14-18.68-7.09-27.25-8.21-54.68-8.58-82.27-1.11-27.36,7.39-51.02,22.19-71.11,43.29-15.68,16.46-26.56,35.18-32.64,56.15-3.17,10.94-5.27,21.25-5.37,32.25,0,1.24.19,2.55.59,3.94-.89,3.3-2.59,6.34-5.09,9.13-6.24,6.96-16.45,3.59-18.54-5.36-1.19-5.1-2.2-9.95-3.2-15.27,0,0-.2-5.84,0-9.66,1.35-12.36,3.88-24.13,7.61-35.31,1.84-5.51,4.39-10.85,6.63-16.24,1.95-4.69,5.04-8.71,7.41-13.27,2.61-5.05,5.57-9.61,8.88-13.68,4.15-5.11,8.19-9.91,12.12-14.39,5.37-6.11,12.33-12.75,20.87-19.9,6.44-5.39,14.65-10.79,24.64-16.19,2.4-1.3,9.2-4.84,10.27-5.32,11.53-5.17,23.77-9.32,36.7-12.45C154.36-.25,174.27-.82,193.88.88c5.15.45,10.39,1.26,15.71,2.45,16.46,3.69,32.26,8.71,47.16,16.67,20.75,11.09,39,25.86,54.75,44.29,22.43,26.25,35.57,59.5,38.86,93.83Z"/>
  <path class="cls-1" d="m324.37,173.34c-3.14-1.83-6.29-3.56-9.46-5.19-8.02-4.14-16.19-5.73-24.52-4.76-1.9.22-3.77.66-5.61,1.33-2.02.73-4.03,1.49-6.04,2.27-2.07.8-4.07,1.92-6.02,3.35-2.15,1.58-3.94,3.21-5.37,4.9-.87,1.03-1.76,2.05-2.67,3.07-.91,1.03-1.71,2.13-2.4,3.31-.82,1.43-1.49,2.83-2.01,4.22-.98,2.62-1.81,5.53-2.49,8.73-.5,2.35-.74,4.83-.72,7.42.02,3.26.36,6.02,1.03,8.28.97,3.27,2.39,6.62,4.28,10.04,1.82,3.32,4.06,6.16,6.72,8.52,5.23,4.64,11.16,7.5,17.79,8.58,3.81.62,7.83.51,11.69.36,1.48-.06,3.13-.38,4.95-.97.7-.23,1.37-.14,2.04.13.46.19.69.72.5,1.19-1.23,3.01-2.88,5.84-4.93,8.5-7.59,9.83-15.72,18.72-24.38,26.67-3.35,3.07-6.9,5.94-10.67,8.6-5.18,3.65-8.99,6.21-11.43,7.67-4.73,2.83-10.2,5.72-16.41,8.65-5.87,2.77-11.53,4.96-16.96,6.56-9.64,2.85-17.9,4.75-24.77,5.71-19.96,2.8-40.1,1.71-60.43-3.26-3.83-.93-8.1-2.24-12.79-3.91-4.59-1.63-8.74-3.29-12.45-4.98-27.06-12.29-48.28-31.02-63.65-56.19-4.28-7.01-7.14-13.56-8.57-19.66-.65-2.77-.94-6.33-.85-10.7.12-5.8,3.24-10.93,7.51-14.77,2.41-2.17,4.85-3.44,7.3-3.83,4.35-.69,8.1.4,11.25,3.25,2.33,2.12,4.42,4.62,4.84,7.93.91,7.07-3.32,10.13-8.68,13.13-1.3.72-2.26,1.59-2.89,2.6-1.92,3.1-2.4,6.06-1.44,8.89,1.37,4.06,4.43,6.47,9.18,7.24,3.07.49,7,.74,9.99-.37,6.21-2.29,11.07-6.47,14.57-12.55,3.3-5.74,5.08-11.57,5.35-17.48.28-6.19-.83-11.96-3.32-17.31-3.21-6.91-7.99-12.45-14.33-16.63-9.37-6.19-19.28-8.46-29.73-6.81-6.41,1.01-12.49,3.56-18.25,7.66-.25.18-.52.21-.81.09-.51-.21-.8-.44-.87-.67-.4-1.39-.6-2.7-.59-3.94.1-11,2.2-21.31,5.37-32.25,6.08-20.97,16.96-39.69,32.64-56.15,20.09-21.1,43.75-35.9,71.11-43.29,27.59-7.47,55.02-7.1,82.27,1.11,6.5,1.95,12.73,4.32,18.68,7.09,24.7,11.51,45.14,28.21,61.31,50.1,4.09,5.53,7.61,11.19,10.56,16.96,9.77,19.1,14.96,39.62,15.58,61.56ZM96.1,104c-10.8,1.78-19.55,7.77-25.77,16.66-2.43,3.47-4.79,8.29-4.78,12.63.01,1.8.16,3.19.47,4.17,2.8,9.06,14.69,10.87,19.47,2.32,1.08-1.93,1.31-4.08,2.65-5.95,3.5-4.88,7.98-7.5,13.45-7.86,6.89-.46,12.13,1.8,15.71,6.79,1.78,2.49,2.61,5.7,4.3,8.33,2.58,4.04,8.37,5.74,12.65,3.47,3.21-1.69,5.21-4.25,6-7.66,1.68-7.18-3.32-14.85-7.78-20.14-9.05-10.75-22.54-15.03-36.37-12.76Zm165.17,29.31c1.13,1.58,1.91,3.75,2.62,5.57,1.7,4.43,5.88,7.25,10.58,6.77,8.67-.88,12.24-8.27,9.47-16.1-5.15-14.57-18.63-24.71-33.83-26.01-6.08-.51-11.32-.05-15.71,1.4-11.01,3.62-19.01,10.88-24.02,21.79-3.82,8.31,0,19.16,10.57,18.72,4.19-.18,7.66-3.24,8.98-7.31,4.62-14.27,22.79-16.83,31.34-4.83Zm-70.79,31.64c3.62-8.13-.17-17.73-8.48-21.43-8.3-3.69-17.97-.09-21.6,8.04-3.62,8.13.17,17.73,8.48,21.43,8.3,3.69,17.97.09,21.6-8.04Zm-59.47,45.64c11.39,10.62,26.25,15.47,41.43,16.61,4.03.31,8.36.07,13-.7,17.4-2.9,31.36-10.83,41.89-23.8,2.51-3.1,4.07-6.02,4.67-8.77,1.21-5.59-.26-9.98-4.42-13.16-5.42-4.13-11.49-1.68-14.85,3.68-10.44,16.72-27.93,22.98-46.99,19.4-10.25-1.92-20.21-7.93-25.82-16.91-4.03-6.47-10.06-10.77-17.47-6.07-8.31,5.27-2.75,16.6,1.75,22.14,2.76,3.39,5.03,5.92,6.81,7.58Z"/>
  <path class="cls-6" d="m96.1,104c13.83-2.27,27.32,2.01,36.37,12.76,4.46,5.29,9.46,12.96,7.78,20.14-.79,3.41-2.79,5.97-6,7.66-4.28,2.27-10.07.57-12.65-3.47-1.69-2.63-2.52-5.84-4.3-8.33-3.58-4.99-8.82-7.25-15.71-6.79-5.47.36-9.95,2.98-13.45,7.86-1.34,1.87-1.57,4.02-2.65,5.95-4.78,8.55-16.67,6.74-19.47-2.32-.31-.98-.46-2.37-.47-4.17-.01-4.34,2.35-9.16,4.78-12.63,6.22-8.89,14.97-14.88,25.77-16.66Z"/>
  <path class="cls-6" d="m261.27,133.31c-8.55-12-26.72-9.44-31.34,4.83-1.32,4.07-4.79,7.13-8.98,7.31-10.58.44-14.39-10.41-10.57-18.72,5.01-10.91,13.01-18.17,24.02-21.79,4.39-1.45,9.63-1.91,15.71-1.4,15.2,1.3,28.68,11.44,33.83,26.01,2.77,7.83-.8,15.22-9.47,16.1-4.7.48-8.88-2.34-10.58-6.77-.71-1.82-1.49-3.99-2.62-5.57Z"/>
  <ellipse class="cls-6" cx="175.44" cy="158.26" rx="16.13" ry="16.46" transform="translate(-40.5 254.17) rotate(-66)"/>
  <path class="cls-7" d="m350.36,158.11c.31,4.13.44,10.42.4,18.85-.09,18.02-3.21,35.35-9.36,52-10.57,28.57-27.65,54.28-50.58,73.74-2.77,2.35-7.02,5.63-12.77,9.85-12.27,9.02-26.82,16.06-40.82,21.42-8.53,3.27-18.24,5.94-29.11,8.01-22.22,4.23-44.36,4.18-66.42-.17-8.43-1.66-16.93-3.94-25.51-6.83-17.94-6.05-34.63-15.17-50.07-27.34-12.96-10.21-26.28-23.91-35.89-38.34-11.53-17.3-19.91-35.54-25.16-54.71C1.41,201.2-.27,187.39.03,173.15c.04-1.82-.01-15.46.08-17.86-.05,5.07,26.03,20.28,26.92,16.98,2.08-4.29,13.93-6.18,20.34-7.19,10.45-1.65,20.36.62,29.73,6.81,6.34,4.18,11.12,9.72,14.33,16.63,2.49,5.35,3.6,11.12,3.32,17.31-.27,5.91-2.05,11.74-5.35,17.48-3.5,6.08-8.36,10.26-14.57,12.55-2.99,1.11-6.92.86-9.99.37-4.75-.77-7.81-3.18-9.18-7.24-.96-2.83-.48-5.79,1.44-8.89.63-1.01,1.59-1.88,2.89-2.6,5.36-3,9.59-6.06,8.68-13.13-.42-3.31-2.51-5.81-4.84-7.93-3.15-2.85-6.9-3.94-11.25-3.25-2.45.39-4.89,1.66-7.3,3.83-4.27,3.84-7.39,8.97-7.51,14.77-.09,4.37.2,7.93.85,10.7,1.43,6.1,4.29,12.65,8.57,19.66,15.37,25.17,36.59,43.9,63.65,56.19,3.71,1.69,7.86,3.35,12.45,4.98,4.69,1.67,8.96,2.98,12.79,3.91,20.33,4.97,40.47,6.06,60.43,3.26,6.87-.96,15.13-2.86,24.77-5.71,5.43-1.6,11.09-3.79,16.96-6.56,6.21-2.93,11.68-5.82,16.41-8.65,2.44-1.46,6.25-4.02,11.43-7.67,3.77-2.66,7.32-5.53,10.67-8.6,8.66-7.95,16.79-16.84,24.38-26.67,2.05-2.66,3.7-5.49,4.93-8.5.19-.47-.04-1-.5-1.19-.67-.27-1.34-.36-2.04-.13-1.82.59-3.47.91-4.95.97-3.86.15-7.88.26-11.69-.36-6.63-1.08-12.56-3.94-17.79-8.58-2.66-2.36-4.9-5.2-6.72-8.52-1.89-3.42-3.31-6.77-4.28-10.04-.67-2.26-1.01-5.02-1.03-8.28-.02-2.59.22-5.07.72-7.42.68-3.2,1.51-6.11,2.49-8.73.52-1.39,1.19-2.79,2.01-4.22.69-1.18,1.49-2.28,2.4-3.31.91-1.02,1.8-2.04,2.67-3.07,1.43-1.69,3.22-3.32,5.37-4.9,1.95-1.43,3.95-2.55,6.02-3.35,2.01-.78,4.02-1.54,6.04-2.27,1.84-.67,3.71-1.11,5.61-1.33,8.33-.97,16.5.62,24.52,4.76,3.17,1.63,6.32,3.36,9.46,5.19.95,2.16,2.28,4,3.99,5.51,2.69,2.37,5.84,3.12,9.45,2.25,9.99-2.4,12.55-22.99,12.55-22.99Zm-50.97,56.79c6.06-2.23,9.1-9.13,6.79-15.42-2.31-6.29-9.1-9.58-15.17-7.34-6.06,2.23-9.1,9.13-6.79,15.42,2.31,6.29,9.1,9.58,15.17,7.34Z"/>
  <path class="cls-6" d="m131.01,210.59c-1.78-1.66-4.05-4.19-6.81-7.58-4.5-5.54-10.06-16.87-1.75-22.14,7.41-4.7,13.44-.4,17.47,6.07,5.61,8.98,15.57,14.99,25.82,16.91,19.06,3.58,36.55-2.68,46.99-19.4,3.36-5.36,9.43-7.81,14.85-3.68,4.16,3.18,5.63,7.57,4.42,13.16-.6,2.75-2.16,5.67-4.67,8.77-10.53,12.97-24.49,20.9-41.89,23.8-4.64.77-8.97,1.01-13,.7-15.18-1.14-30.04-5.99-41.43-16.61Z"/>
  <ellipse class="cls-1" cx="295.2" cy="203.52" rx="11.7" ry="12.13" transform="translate(-52.12 114.45) rotate(-20.2)"/>
</svg>