<?xml version="1.0" encoding="UTF-8"?>
<svg id="_Слой_1" data-name="Слой 1" xmlns="http://www.w3.org/2000/svg" viewBox="0 0 678.3 685">
  <defs>
    <style>
      .cls-1 {
        stroke: #805b57;
      }

      .cls-1, .cls-2, .cls-3, .cls-4, .cls-5, .cls-6, .cls-7, .cls-8, .cls-9, .cls-10 {
        fill: none;
        stroke-width: 2px;
      }

      .cls-11 {
        fill: #ffb100;
      }

      .cls-2 {
        stroke: #ffbe6e;
      }

      .cls-3 {
        stroke: #80a29f;
      }

      .cls-12 {
        fill: #ff8400;
      }

      .cls-4 {
        stroke: #ff7725;
      }

      .cls-5 {
        stroke: #ff9b00;
      }

      .cls-13 {
        fill: #ff6a4a;
      }

      .cls-14 {
        fill: #fff8db;
      }

      .cls-6 {
        stroke: #ff8e25;
      }

      .cls-7 {
        stroke: #ffd56e;
      }

      .cls-8 {
        stroke: #807e32;
      }

      .cls-15 {
        fill: #004b63;
      }

      .cls-9 {
        stroke: #806832;
      }

      .cls-10 {
        stroke: #ffb193;
      }
    </style>
  </defs>
  <g>
    <path class="cls-3" d="m372.86,74.2c-6.28,8.29-11.66,17.45-16.14,27.48" vector-effect="non-scaling-stroke"/>
    <path class="cls-7" d="m356.72,101.68c.08-2.93.3-5.7.67-8.32.44-3.2.81-6.21,1.11-9.02.66-6.23,1.08-12.55,1.25-18.94.41-15.18-1.45-30.23-8.1-43.05-2.8-5.39-7.91-10.55-14.4-6.84-5,2.85-8.04,7.67-10.43,12.91-4.43,9.73-6.81,19.88-7.15,30.47-.17,5.39-.23,10.82-.2,16.31.02,2.26.17,4.4.45,6.41.82,5.87,1.59,11.64,2.3,17.31.06.47.27,1.24.64,2.29.35,1.01.33,1.84-.06,2.47" vector-effect="non-scaling-stroke"/>
    <path class="cls-3" d="m322.8,103.68c-4.11-9.27-8.84-18.13-14.19-26.59-.12-.2-.16-.37-.12-.5.05-.16.18-.31.38-.44" vector-effect="non-scaling-stroke"/>
    <path class="cls-9" d="m444.52,169.47c1.22-.52,2.49-1.41,3.81-2.68,6.2-5.96,12.36-11.96,18.48-18.01,5.63-5.55,12.45-11.16,20.46-16.83" vector-effect="non-scaling-stroke"/>
    <path class="cls-8" d="m536.32,153.29l-.8-.14c-.37-.06-.65-.25-.86-.57-3.65-5.68-9.26-8.47-16.81-8.36-5.13.07-9.93,1.34-14.39,3.8-10.14,5.59-19.51,13.78-28.1,24.55-3.68,4.62-5.98,9.04-6.89,13.26-2.21,10.26,2.21,21.21,11.89,25.42,4.43,1.93,9.02,2.26,13.77,1,4.61-1.23,9.7-3.39,15.25-6.5" vector-effect="non-scaling-stroke"/>
    <path class="cls-8" d="m598.73,152.34c5.29,12.63,4.66,25.38-1.9,38.24-7.05,13.83-18.21,23.23-33.49,28.2-1.11.36-2.3.61-3.56.74-1.31.15-2.53.28-3.66.39-6.61.66-12.93,1.24-18.97,1.73-3.59.29-7.17,1.08-10.74,2.37-11.16,4.01-17.81,15.64-11.73,26.85,2.66,4.92,7.65,7.03,12.97,6.8,5.82-.26,11.41-1.32,16.76-3.17,12.09-4.19,24.29-8.35,36.59-12.5.87-.29,1.77-.55,2.7-.78.97-.23,1.85-.55,2.66-.95" vector-effect="non-scaling-stroke"/>
    <path class="cls-3" d="m602.29,318.36c-.17-.22-.37-.28-.6-.17-9.36,4.31-19.55,8.54-30.56,12.69" vector-effect="non-scaling-stroke"/>
    <path class="cls-8" d="m571.13,330.88c-7.98,2.85-15.96,4.76-22.72,7.54-7.38,3.04-12.08,9.66-9.17,17.81" vector-effect="non-scaling-stroke"/>
    <path class="cls-9" d="m539.24,356.23c1.99,4.36,5.01,7.6,9.06,9.73,5.48,2.87,11.43,5.49,17.86,7.87,10.51,3.89,15.78,5.84,15.83,5.86,5.85,2.3,11.98,4.66,18.41,7.08.42.16.72.19.91.08" vector-effect="non-scaling-stroke"/>
    <path class="cls-8" d="m584.81,460.86c-5.8-1.11-10.02-2.04-12.67-2.81-13.28-3.87-26.69-8.27-40.24-13.19-2.09-.76-4.84-1.22-8.24-1.38-5.8-.27-10.23,1.53-13.3,5.38-2.37,2.99-3.46,6.5-3.26,10.55.21,4.05,1.85,7.7,4.94,10.95,6.48,6.83,14.65,10.74,24.5,11.74,6.51.67,13.28,1.44,20.33,2.33,5.52.7,10.27,2,14.24,3.89,10.19,4.87,17.97,11.44,23.34,19.71,6.25,9.61,8.23,20.21,5.94,31.8" vector-effect="non-scaling-stroke"/>
    <path class="cls-8" d="m581.04,538.82c.49-4.51-.08-8.79-1.69-12.84-1.52-3.83-3.96-7.12-7.31-9.88-7.64-6.3-15.73-9.77-25.36-10.82-3.87-.43-7.79-.72-11.77-.89-11.97-.51-23.66-4.15-32.75-11.71-2.48-2.05-5.07-4.09-7.77-6.12-7.49-5.61-17.26-4.05-22.86,3.2-2.95,3.81-4.26,8.03-3.94,12.65.29,4.12,2.42,8.29,4.72,11.64,5.18,7.53,12.07,15.13,20.67,22.78,3.71,3.29,7.29,5.91,10.75,7.84,4.85,2.72,14.57,5.17,18.52-.6.98-1.44,1.88-2.9,2.71-4.37,2.94-5.26,8.91-5.33,13.44-1.9,2.96,2.24,4.9,5.29,5.81,9.14" vector-effect="non-scaling-stroke"/>
    <path class="cls-9" d="m489.27,562.14c-.1-.33-.3-.6-.61-.8-5.5-3.66-10.64-7.77-15.43-12.32-7.35-7-13.85-13.68-19.48-20.03-5.21-5.88-9.76-11.18-18.35-9.95-2.81.41-4.87,1.36-6.17,2.87" vector-effect="non-scaling-stroke"/>
    <path class="cls-8" d="m429.23,521.91c-6.37,8.29-3.77,17.45-.46,26.32,1.45,3.88,4.18,11.8,8.21,23.76,2.63,7.83,4.16,15.84,4.59,24.02" vector-effect="non-scaling-stroke"/>
    <path class="cls-8" d="m369.82,611.42c-1.89-3.06-3.23-5.3-4.01-6.71-7.47-13.53-12.68-27.77-15.63-42.71-.91-4.57-3.13-11.54-7.8-13.48-3.04-1.26-5.78-.91-8.23,1.04-5.01,4-5.21,8.21-6.56,13.58" vector-effect="non-scaling-stroke"/>
    <path class="cls-9" d="m327.59,563.14c-1.84,6.08-3.68,12.15-5.52,18.22-2.71,8.95-7.6,18.29-14.69,28.04-.17.23-.12.4.15.49l.35.13" vector-effect="non-scaling-stroke"/>
    <path class="cls-8" d="m238.54,599.45c-1.32-6.44-1.09-12.94.68-19.49,3.17-11.71,8.49-25.57,13.74-37.82,1.04-2.43,1.75-4.8,2.13-7.09.38-2.31.27-4.6-.32-6.87-1.36-5.19-4.77-8.19-10.23-9.02-2.44-.37-4.91-.06-7.41.94-3.21,1.29-5.49,2.6-6.83,3.92-5.15,5.07-10.21,10.09-15.17,15.07-4.81,4.83-11.33,10.58-19.56,17.24" vector-effect="non-scaling-stroke"/>
    <path class="cls-8" d="m145.68,540.51c3.39,2.17,6.23,3.77,8.52,4.8,6.09,2.72,13.46,1.21,19.34-2,10.44-5.69,20.01-13.77,27.93-23.02,2.16-2.53,4.25-5.39,6.28-8.56.51-.81.83-1.52.97-2.14.07-.32.2-.62.39-.89.87-1.27,1.42-2.92,1.65-4.93.82-7-1.2-12.38-6.07-16.13-6.5-5.01-14.55-3.59-20.8.85-2.95,2.11-5.87,4.25-8.75,6.44-2.81,2.13-5.88,3.97-9.22,5.52-4.04,1.87-8.16,3.42-12.35,4.66" vector-effect="non-scaling-stroke"/>
    <path class="cls-8" d="m79.63,541.75c-1.13-3.95-1.61-7.99-1.43-12.13.16-3.76.99-7.45,2.49-11.08,5.55-13.36,14.85-23.53,27.91-30.5,6.28-3.35,13.03-4.9,19.99-5.11,5.33-.16,10.64-.31,15.93-.44,9.57-.23,17.18-4.12,22.84-11.67,5.34-7.13,6.1-16.73.8-24.33-3.46-4.96-9.13-6.85-15.02-6.14-3.35.41-5.52.81-6.52,1.2-7.61,2.99-15.21,5.99-22.8,9-9.01,3.57-18.09,6.26-27.22,8.07" vector-effect="non-scaling-stroke"/>
    <path class="cls-1" d="m81.47,382.83h.35c.23.02.45-.03.66-.14,4.46-2.41,9.12-4.48,13.97-6.21,8.94-3.19,18.12-7.03,27.55-11.52,4.12-1.96,7.21-3.7,9.26-5.23,9.06-6.71,11.01-15.04,5.85-24.97" vector-effect="non-scaling-stroke"/>
    <path class="cls-9" d="m139.11,334.76l-9.98-6.05" vector-effect="non-scaling-stroke"/>
    <path class="cls-8" d="m129.13,328.71l-29.5-9.22" vector-effect="non-scaling-stroke"/>
    <path class="cls-3" d="m99.63,319.49l-19.93-6.91" vector-effect="non-scaling-stroke"/>
    <path class="cls-8" d="m89.52,235.14c.13.07.26.14.39.21.13.08.26.13.41.15,4.53.66,8.85,1.67,12.96,3.02,11.21,3.71,22.78,7.61,34.71,11.68,2.45.83,4.93,1.63,7.45,2.38,9.65,2.88,18.95-.48,22.23-10.29,1.12-3.34,1.23-6.72,0-10-5.27-14.2-21.86-14.18-34.23-14.71-14.26-.61-25.53-7.41-36.72-15.78-4.67-3.49-8.11-7.91-11.44-12.56-4.24-5.93-6.9-12.47-7.98-19.64-1.18-7.79.1-14.86,3.84-21.2" vector-effect="non-scaling-stroke"/>
    <path class="cls-8" d="m98.77,156.49c-1.28,6.59-.22,12.79,3.19,18.6,6.91,11.79,17.26,18.59,31.04,20.41,3.93.52,8.54.93,13.83,1.23,3.9.22,8.31.88,13.23,1.98,6.51,1.46,12.13,4.17,17.8,7.55,9.49,5.67,19.84,6.86,28.34-.8,3.39-3.05,7.08-7.07,8.54-11.49.47-1.41.9-2.79,1.3-4.14,1.28-4.35.68-8.55-1.07-12.74-5.08-12.15-14.37-21.4-25.14-29.59-7.62-5.78-15.88-9.45-25.56-6.87-2.91.77-7.8,4.63-4.24,8.09,3.85,3.75,6.03,8.08,4.05,13.37-3.65,9.72-13.35,8.99-19.92,3.01-2.8-2.55-4.69-4.61-5.66-6.2" vector-effect="non-scaling-stroke"/>
    <path class="cls-9" d="m190.56,121.41c6.07,3.13,10.06,5.41,11.96,6.82,12.31,9.16,21.65,20.01,30.83,32.36,2.17,2.92,5.07,5.44,8.29,6.82,2.06.88,4.37.68,6.94-.61" vector-effect="non-scaling-stroke"/>
    <path class="cls-8" d="m356.72,101.68c0,.49-.18,1.24-.49,2.23-.01.05-.03.04-.06-.01-.01-.03-.02-.05-.03-.08-.06-.09-.11-.08-.14.03-.82,2.66-1.58,5.27-2.27,7.84-1.85,6.85-2.79,13.99-3.9,21.03-1.02,6.41-3.77,13.58-11.84,12.24-9.08-1.52-9.78-15.94-10.5-22.72-.49-4.71-2.06-10.9-4.69-18.56" vector-effect="non-scaling-stroke"/>
    <path class="cls-5" d="m352.68,680.86c-7.93-9.13-13.46-19.55-16.59-31.26-2.74-10.23-4.34-20.52-4.79-30.88-.43-9.64-.56-19.03-.4-28.18.11-6.8,1.17-13.72,1.49-20.68.15-3.05-2.68-3.05-4.57-4.44-.27-.19-.39-.45-.36-.78l.13-1.5" vector-effect="non-scaling-stroke"/>
    <path class="cls-2" d="m677.83,350.74c-3.75,1.45-6.93,1.14-9.54-.91" vector-effect="non-scaling-stroke"/>
    <path class="cls-7" d="m668.29,349.83c-12.05-12.95-26.68-20.07-43.9-21.36-16.32-1.23-33.75-.25-52.28,2.92-.96.17-1.29,0-.98-.51" vector-effect="non-scaling-stroke"/>
    <path class="cls-5" d="m668.29,349.83c-2.8,1.94-5.85,3.46-9.16,4.56-8.7,2.89-17.3,4.74-25.79,5.57-5.61.55-11.11,1.73-16.7,1.85-7.31.15-14.89.18-22.75.08-5.47-.07-10.88-.31-16.23-.72-5.77-.44-11.18-.86-16.22-1.27-2.96-.23-6.05-.54-9.26-.93-1.89-.23-4.05-.67-6.46-1.34-2.15-.59-4.31-1.05-6.48-1.4" vector-effect="non-scaling-stroke"/>
    <path class="cls-8" d="m237.52,86.24c-.85,6.52-.7,12.38.45,17.58,1.53,6.96,4.2,15.02,8.01,24.17,2.17,5.19,4.44,10.42,6.83,15.68,2.52,5.55,3.09,10.9,1.72,16.05-.97,3.63-2.95,5.99-5.95,7.08" vector-effect="non-scaling-stroke"/>
    <path class="cls-5" d="m248.58,166.8c-.19-.81.08-1.41.81-1.81,1.24-.68,1.68-1.54,1.31-2.59-.57-1.63-.28-3.25-.74-4.85-.46-1.57-1.05-3.08-1.77-4.51-1.23-2.44-1.96-3.92-2.17-4.43-2.41-5.69-5.12-11.53-8.15-17.5-1.94-3.83-4.59-8.23-7.95-13.2-2.73-4.06-5.55-8.35-8.45-12.87-3.89-6.09-9.55-12.13-16.97-18.12" vector-effect="non-scaling-stroke"/>
    <path class="cls-7" d="m99.63,319.49c-8.19,2.19-16.19,3.55-24,4.1-15.84,1.1-29.79,3.06-44.24,9.46-7.39,3.27-14.59,8.54-21.62,15.79" vector-effect="non-scaling-stroke"/>
    <path class="cls-2" d="m9.77,348.84c-3.9.07-6.89-1.32-8.96-4.17" vector-effect="non-scaling-stroke"/>
    <path class="cls-4" d="m139.11,334.76c-1.49,3.71-3,6.4-4.51,8.09-3.13,3.46-7.99,7.41-14.59,11.86-1.82,1.23-3.99,2.37-6.51,3.44-2.27.95-4.44,2.02-6.49,3.2-1.79,1.02-3.74,1.39-5.39,2.73-.3.25-.64.37-1.03.37-.54.01-.97.21-1.3.62-.34.42-.75.75-1.24,1-2.11,1.09-4.21,1.93-6.28,2.54-1.03.3-1.52.76-2.33,1.35-.3.21-.63.34-.99.37l-3.3.32c-.21.02-.36.13-.43.33-.05.13-.13.21-.25.24-1.37.32-2.69.63-3.98.93-1.21.29-2.42.69-3.63,1.21-1.17.49-2.65.91-4.45,1.26-5.38,1.04-10.85,1.77-16.4,2.18-1.92.14-3.65.35-5.2.62-1.72.3-3.45.57-5.18.8-.85.11-2.35.11-4.49,0-1.54-.09-3.06.06-4.55.44" vector-effect="non-scaling-stroke"/>
    <path class="cls-5" d="m476.34,88.48c-5.46,4.55-10.67,9.41-15.64,14.58-2.45,2.55-4.56,5.17-6.33,7.84-1.9,2.86-3.78,5.68-5.63,8.45-1.64,2.45-2.88,5.04-4.29,7.63-1,1.82-1.92,3.84-2.75,6.05-1.33,3.53-2.63,6.7-3.89,9.5-2.17,4.81-3.84,9.55-5.03,14.23-.47,1.87-.76,3.75-.87,5.63-.11,1.94-.19,3.89-.22,5.85-.02,1.07.78,1.97,1.84,2.09,3.13.35,6.8.06,10.99-.86" vector-effect="non-scaling-stroke"/>
    <path class="cls-8" d="m444.52,169.47c-8.41,4.78-20.28,2.37-20.44-9.21-.05-3.14.33-6.16,1.12-9.06.68-2.48,1.44-5.03,2.29-7.65.87-2.65,1.82-5.24,2.85-7.77,3.11-7.58,5.68-14.56,7.72-20.94,2.23-6.99,2.74-14.15,1.53-21.46" vector-effect="non-scaling-stroke"/>
    <path class="cls-5" d="m479.38,599.4c-.43.16-.83.23-1.2.21-.27-.01-.51-.11-.72-.29-2.72-2.48-5.31-4.77-7.77-6.86-2.58-2.19-5.47-5.64-8.66-10.34-3.42-5.03-6.65-9.92-9.69-14.66-3.72-5.79-7.04-11.72-9.97-17.78-1.91-3.97-3.97-8.58-6.16-13.82-1.91-4.57-3.9-9.22-5.98-13.95" vector-effect="non-scaling-stroke"/>
    <path class="cls-5" d="m129.13,328.71c-2.21,1.33-4.48,2.47-6.81,3.42-3.23,1.33-5.54,2.36-6.94,3.09-6.64,3.48-12.46,6.14-17.45,7.98-4.14,1.51-8.61,3.08-13.42,4.71-5.15,1.75-10.06,3.07-14.72,3.97-9.92,1.92-17.59,3-23.01,3.23-6.56.29-14.11-.03-22.64-.96-5.53-.61-10.32-2.38-14.37-5.31" vector-effect="non-scaling-stroke"/>
    <path class="cls-8" d="m295.48,100.49c-2.19-4.72-4.65-9.34-7.58-13.84-2.95-4.51-6.64-7.36-11.08-8.54-4.93-1.31-9.06-.56-12.41,2.27-5.25,4.45-6.57,10.45-3.98,18,4.49,13.08,9.44,25.55,14.85,37.41,2.15,4.73,4.42,8.73,6.81,12,2.41,3.29,6.08,4.97,11.02,5.04,8.1.11,14.05-5.51,14.11-13.61.02-3.63-.42-7.09-1.33-10.36-2.69-9.73-6.16-19.18-10.41-28.37" vector-effect="non-scaling-stroke"/>
    <path class="cls-8" d="m402.08,140.17c4.29-8.04,7.04-16.55,10.67-24.95,1.03-2.38,1.93-4.72,2.7-7.01.81-2.42,1.59-4.75,2.33-6.98.09-.27.23-.52.42-.73.21-.25.33-.55.35-.88.11-1.81.14-3.74.07-5.77-.35-10.44-12.17-15.29-21.11-11.43-4.12,1.79-7.34,5.05-9.65,9.78-4.7,9.65-8.77,19.37-12.22,29.18-1.56,4.42-2.61,9.1-3.39,13.73-1.3,7.75,2.09,18.46,11.54,19.09,7.95.53,12.74-1.84,15.99-9.28.69-1.59,1.46-3.17,2.3-4.75" vector-effect="non-scaling-stroke"/>
    <path class="cls-1" d="m164.35,324.95c-1.87,14.39-1.25,27.97.05,40.41.97,9.22,2.98,18.7,6.03,28.43,6.43,20.5,16.03,39.3,28.79,56.41,3.16,4.23,6.78,8.46,10.85,12.67,7.97,8.24,16.46,16.51,25.81,23.04,8.42,5.88,17.54,11.82,26.51,15.83,20.21,9.05,40.2,14.52,59.99,16.41,25.13,2.41,50.36-.68,75.69-9.25,4.79-1.63,10.26-3.89,16.39-6.78,5.71-2.69,10.92-5.38,15.64-8.05,8.33-4.73,17.17-11.14,26.5-19.25,13.96-12.13,25.58-26.25,34.85-42.35,3.88-6.74,7.37-14.19,10.52-21.34,7.58-17.22,11.81-35.31,12.68-54.26.41-8.79.3-17.38-.33-25.79" vector-effect="non-scaling-stroke"/>
    <path class="cls-3" d="m514.32,331.08c-.91-7.55-2.14-14.87-3.68-21.96-5.46-25.04-15.85-47.28-31.17-66.73-13.56-17.21-31.4-33.17-50.94-44.68-5.34-3.14-10.2-5.71-14.57-7.7-18.17-8.26-36.57-13.43-55.2-15.51-12.32-1.37-26.17-1.3-41.56.21-11.01,1.09-22.11,4.2-32.42,7.33-7.47,2.27-14.69,5.01-21.68,8.22-2.01.92-4.03,1.35-5.98,2.51-4.73,2.81-9.44,5.62-14.14,8.41-5.03,2.99-11.26,7.23-14.94,10.49-5.17,4.59-9.76,8.82-13.78,12.71-7.3,7.06-13.43,14.78-19.84,22.4-.79.93-1.51,1.93-2.16,2.99-1.61,2.6-3.41,5.01-4.77,7.75-2.79,5.63-6.39,10.41-9,16.05-7.51,16.25-12.22,33.38-14.14,51.38" vector-effect="non-scaling-stroke"/>
    <path class="cls-10" d="m514.32,331.08c-.43.78-1.66,1.06-3.69.84-.39-.05-.73.29-.69.68.77,7.63,1.93,19.16-7.65,21.92-4.12,1.18-7.59.39-10.42-2.38-1.64-1.61-2.85-3.29-3.63-5.04" vector-effect="non-scaling-stroke"/>
    <path class="cls-7" d="m488.24,347.1c-.59-15.21-2.65-28.12-6.16-38.73-4.31-13.02-9.65-24.47-16.04-34.36-6.65-10.27-15.79-20.63-27.43-31.08-11.51-10.33-25.35-19.09-41.51-26.26-10.44-4.63-22.67-7.8-33.56-9.78-35.04-6.37-74.53,1.75-104.8,21.55-26.43,17.27-49.64,42.56-60.1,73.36-2.56,7.54-4.6,15.14-6.13,22.8-1.43,7.19-1.89,14.75-1.38,22.7" vector-effect="non-scaling-stroke"/>
    <path class="cls-10" d="m191.13,347.3c-1.19,2.43-2.82,4.9-4.9,7.41-2.35,2.83-5.32,4.11-8.89,3.86-13.15-.93-10.9-22.53-9.89-31.13.09-.75-.51-1.4-1.26-1.37-1.14.05-1.75-.33-1.84-1.12" vector-effect="non-scaling-stroke"/>
    <path class="cls-6" d="m488.24,347.1c-7.4-5.23-15.18-8.54-23.34-9.91-4.51-.76-9.04-.59-13.61.52-5.76,1.4-10.92,3.75-15.48,7.06-.59.43-1.15.96-1.7,1.57-.48.55-1.05,1.02-1.71,1.4-.28.16-.51.38-.7.65-.72,1.05-1.57,1.99-2.56,2.8-.22.18-.36.44-.39.73-.05.58-.33.94-.86,1.09-.11.03-.16.11-.15.22,0,.12-.01.23-.07.33-3.71,5.77-5.93,11.54-6.65,17.33-.59,4.72-.24,9.11,1.05,13.18.7,2.23,1.57,4.47,2.6,6.74,4.85,10.65,12.64,17.2,23.36,19.63,5.16,1.18,10.69,1.01,16.06.83,1.12-.03,2.19-.21,3.22-.54,2.67-.85,3.32-.05,1.95,2.39-2.36,4.21-5.05,8.2-8.06,11.96-1.33,1.66-2.96,2.9-4.12,4.71-.46.72-.96,1.4-1.5,2.05-.55.66-1.1,1.32-1.64,1.99-.83,1.03-1.68,1.99-2.56,2.88-5.43,5.48-11.11,10.69-17.04,15.63-2.04,1.7-4.52,3.5-7.44,5.41-2.8,1.83-5.35,3.55-7.65,5.16-1.09.77-2.58,1.57-4.46,2.42-1.69.77-3.17,1.6-4.42,2.5-1.07.78-2.16.72-3.22,1.45-.68.47-1.4.87-2.16,1.2-3.11,1.36-6.16,2.73-9.17,4.11-1.47.68-2.96,1.29-4.45,1.82-1.61.57-3.17,1.08-4.68,1.55-5.73,1.75-12.11,3.45-19.14,5.08-3.45.81-7.11,1.37-10.97,1.69-14.19,1.18-27.85,1.36-42.13-.92-4.53-.72-10.12-1.87-16.79-3.46-2.97-.7-6.08-1.7-9.33-2.99-3.11-1.23-6.18-2.39-9.19-3.48-5.31-1.92-11.82-5.18-19.54-9.77-2.42-1.44-4.6-3.26-7.04-4.73-1.71-1.03-3.42-2.19-5.12-3.49-6.41-4.91-12.19-10.04-17.34-15.39-1.69-1.75-3.32-3.64-4.87-5.66-1.33-1.73-2.83-3.58-4.48-5.54-2.8-3.31-6.31-8.37-10.52-15.18-2.72-4.38-4.94-9.29-6.67-14.73-.83-2.62-1.34-5.03-1.55-7.23-.36-3.89-.89-8.99.79-12.69,2.5-5.51,7.3-11.51,13.4-12.71,2.25-.45,4.61-.21,7.08.71,1.59.59,3.11,1.58,4.54,2.97,3.5,3.39,5.27,6.03,4.64,11.34-.47,3.85-4.14,6.95-7.37,8.59-4.03,2.04-6.01,5.27-5.94,9.68.01,1.22.24,2.38.69,3.49,1.08,2.66,2.56,3.78,4.94,5.05,1.2.64,2.47,1.06,3.82,1.25,3.8.55,6.68.58,8.63.11,5.56-1.35,10.4-4.93,14.51-10.72,3.45-4.85,5.58-10.17,6.39-15.94.73-5.21.59-9.92-.42-14.13-3.3-13.75-12.75-23-26.01-28.49-9.22-3.82-20.94-2.79-29.91.81-1.29.52-3.07,1.47-5.36,2.86-1.7,1.03-3.47,2.02-5.3,2.96" vector-effect="non-scaling-stroke"/>
    <path class="cls-8" d="m145.91,282.25c-1.51-2.31-3.38-4.09-5.62-5.34-4.17-2.33-8.84-4.4-13.28-6.04-10.23-3.78-20.11-7.46-29.64-11.03-7.9-2.96-19.61-3.52-23.19,5.77-1.79,4.63-1.54,8.8.74,12.51,4.17,6.79,12.54,11.98,19.69,15.12,11.84,5.21,23.64,9.36,35.4,12.44,8.14,2.14,15.79-1.85,18.16-10.23,1.29-4.53.53-8.93-2.26-13.2" vector-effect="non-scaling-stroke"/>
    <path class="cls-8" d="m532.13,301.81c2.06,7.68,6.91,11.65,14.57,11.47,2.81-.06,5.34-.42,7.58-1.08,15.72-4.63,30.74-11.47,45.07-20.53,5.81-3.67,11.74-11.92,8.92-18.96-5.78-14.43-18.23-12.04-30.14-6.77-12.5,5.53-25.27,9.51-37.16,16.45-6.82,3.98-10.94,11.56-8.84,19.42" vector-effect="non-scaling-stroke"/>
    <path class="cls-8" d="m148.83,396.16c-1.98-4.5-5.04-7.16-9.18-7.99-5.17-1.04-11.73.17-16.82,2.18-11.67,4.6-22.54,9.28-32.61,14.05-8.44,4-17.08,9.42-15.6,20.18.52,3.78,2.36,6.87,5.53,9.26,5.91,4.46,14.93,3.49,21.47,1.17,14.27-5.04,27.11-10.36,38.51-15.96,1.91-.93,3.76-2.13,5.56-3.59,2.93-2.37,4.55-5.46,4.84-9.27.27-3.55-.22-6.81-1.47-9.78-.03-.07-.08-.12-.14-.15-.04-.02-.07-.05-.09-.1" vector-effect="non-scaling-stroke"/>
    <path class="cls-8" d="m529.46,404.77c-1.77,7.68,3.31,14.16,10.03,17.05,9.19,3.97,18.79,7.69,28.79,11.16,5.82,2.03,11.73,3.61,17.72,4.76,8.61,1.65,18.28.4,20.52-9.34,2.09-9.1-4.94-15.96-12.36-19.29-13.73-6.17-27.68-11.45-41.84-15.83-5.08-1.57-11.4-2.21-16.05.93-3.46,2.34-5.73,5.86-6.81,10.56" vector-effect="non-scaling-stroke"/>
    <path class="cls-8" d="m305.56,547.29c-.91-5.36-5.22-9.44-10.44-10.41-9.5-1.78-15.44,3.97-19.21,12.11-5.74,12.41-10.67,25.54-14.77,38.27-2.23,6.93-.76,12.8,4.42,17.6,4.13,3.82,11.58,5.03,16.49,1.37,4.47-3.33,7.78-9.04,10.07-14.17,3.81-8.52,7.04-16.45,9.69-23.78,2.38-6.57,4.93-13.99,3.75-20.99" vector-effect="non-scaling-stroke"/>
    <path class="cls-8" d="m419.52,595.27c-.67-3.77-1.77-7.6-3.32-11.5-3.79-9.58-7.46-18.92-11.01-28.03-1.38-3.54-3.23-6.93-5.18-10.24-3.7-6.27-9.18-8.61-16.43-7-9.05,2.01-12.12,11.2-10.2,19.27,3,12.63,7.31,24.87,12.94,36.7,1.97,4.16,4.44,8.04,7.4,11.65,4.03,4.93,8.88,7.06,14.55,6.39,8.35-.99,12.58-9.63,11.25-17.24" vector-effect="non-scaling-stroke"/>
    <path class="cls-8" d="m428.51,314.14c1.41,3.27,4.8,4.99,8.16,5.18,9.53.54,14.2-7.94,11.08-16.36-4.81-13.03-16.62-23.53-30.98-25.51-10.16-1.39-19.97.14-28.43,5.97-7.3,5.04-12.31,11.53-15.03,19.48-.94,2.74-.59,6.02.31,8.66,3.33,9.87,16.58,10.32,20.21.24,2.58-7.14,7.74-11.79,15.32-12.3,6.42-.44,11.48,1.69,15.19,6.4,1.96,2.49,2.93,5.4,4.17,8.24" vector-effect="non-scaling-stroke"/>
    <path class="cls-8" d="m254.65,278.95c-3.5,1.24-5.25,1.83-7.73,3.36-7.73,4.77-13.18,11.02-16.34,18.73-.68,1.67-1.05,3.36-1.11,5.09-.07,1.76.11,3.47.53,5.14,1.12,4.44,5.23,7.42,9.72,7.64,6.01.29,9.27-3.39,10.98-8.66.38-1.16.95-2.24,1.72-3.24,3.62-4.74,8.17-7.21,13.64-7.42,6.69-.25,11.72,2.02,15.09,6.81,3.57,5.06,3.18,10.92,10.67,12.65,6.5,1.49,11.87-3.76,12.48-9.98.56-5.79-2.2-11.09-5.73-15.96-8.16-11.27-19.43-16.59-33.81-15.96-3.83.17-7.2.77-10.11,1.8" vector-effect="non-scaling-stroke"/>
    <path class="cls-8" d="m354.7,337.81c3.19-8.34-1.1-17.73-9.59-20.99-8.5-3.26-17.98.85-21.18,9.18-3.19,8.34,1.1,17.73,9.59,20.99,8.5,3.26,17.98-.85,21.18-9.18" vector-effect="non-scaling-stroke"/>
    <path class="cls-5" d="m293.14,382.36c1.68,2.1,3.7,3.89,6.05,5.38" vector-effect="non-scaling-stroke"/>
    <path class="cls-8" d="m299.19,387.74c4.18,3.1,7.11,5.03,8.78,5.8,9.84,4.51,19.69,6.91,29.54,7.19,19.03.55,35.52-5.96,49.46-19.53,6.31-6.15,12.47-14.88,7.43-23.7-3.51-6.14-12.77-7.11-16.87-.78-7.15,11.02-16,18.74-29.18,20.89-16.1,2.63-31.9-1.15-42.33-14.04-1.65-2.05-3.2-4.11-4.63-6.19-3.02-4.37-9.26-6.34-14.07-3.42-9.73,5.89-3.94,17.66,1.92,23.98.41.44,1.02,1.2,1.84,2.28.6.79,1.29,1.51,2.06,2.14" vector-effect="non-scaling-stroke"/>
    <path class="cls-9" d="m299.19,387.74l-6.05-5.38" vector-effect="non-scaling-stroke"/>
    <path class="cls-6" d="m465.89,387.18c5.38-3.67,6.69-11.13,2.92-16.66-3.77-5.53-11.2-7.03-16.58-3.36-5.38,3.67-6.69,11.13-2.92,16.66,3.77,5.53,11.2,7.03,16.58,3.36" vector-effect="non-scaling-stroke"/>
  </g>
  <path class="cls-14" d="m372.86,74.2c-6.28,8.29-11.66,17.45-16.14,27.48.08-2.93.3-5.7.67-8.32.44-3.2.81-6.21,1.11-9.02.66-6.23,1.08-12.55,1.25-18.94.41-15.18-1.45-30.23-8.1-43.05-2.8-5.39-7.91-10.55-14.4-6.84-5,2.85-8.04,7.67-10.43,12.91-4.43,9.73-6.81,19.88-7.15,30.47-.17,5.39-.23,10.82-.2,16.31.02,2.26.17,4.4.45,6.41.82,5.87,1.59,11.64,2.3,17.31.06.47.27,1.24.64,2.29.35,1.01.33,1.84-.06,2.47-4.11-9.27-8.84-18.13-14.19-26.59-.12-.2-.16-.37-.12-.5.05-.16.18-.31.38-.44.25-.05.36-.23.33-.55-.26-3.39-1.22-6.39-1.31-9.87-.22-9.11-.05-16.44.5-21.98.04-.39.09-.77.15-1.16.88-5.77,2.09-11.02,3.62-15.73,3.71-11.41,10.6-21.91,22.03-25.8,4.41-1.5,8.83-1.41,13.26.28,12.77,4.87,19.24,18.42,22.25,31.63,1.43,6.29,2.21,11.74,2.32,16.33.18,7.68.04,15.77-.43,24.28-.01.29.11.48.38.57.23.07.53.09.89.05Z"/>
  <path class="cls-11" d="m356.72,101.68c0,.49-.18,1.24-.49,2.23-.01.05-.03.04-.06-.01-.01-.03-.02-.05-.03-.08-.06-.09-.11-.08-.14.03-.82,2.66-1.58,5.27-2.27,7.84-1.85,6.85-2.79,13.99-3.9,21.03-1.02,6.41-3.77,13.58-11.84,12.24-9.08-1.52-9.78-15.94-10.5-22.72-.49-4.71-2.06-10.9-4.69-18.56.39-.63.41-1.46.06-2.47-.37-1.05-.58-1.82-.64-2.29-.71-5.67-1.48-11.44-2.3-17.31-.28-2.01-.43-4.15-.45-6.41-.03-5.49.03-10.92.2-16.31.34-10.59,2.72-20.74,7.15-30.47,2.39-5.24,5.43-10.06,10.43-12.91,6.49-3.71,11.6,1.45,14.4,6.84,6.65,12.82,8.51,27.87,8.1,43.05-.17,6.39-.59,12.71-1.25,18.94-.3,2.81-.67,5.82-1.11,9.02-.37,2.62-.59,5.39-.67,8.32Z"/>
  <path class="cls-11" d="m237.52,86.24c-.85,6.52-.7,12.38.45,17.58,1.53,6.96,4.2,15.02,8.01,24.17,2.17,5.19,4.44,10.42,6.83,15.68,2.52,5.55,3.09,10.9,1.72,16.05-.97,3.63-2.95,5.99-5.95,7.08-.19-.81.08-1.41.81-1.81,1.24-.68,1.68-1.54,1.31-2.59-.57-1.63-.28-3.25-.74-4.85-.46-1.57-1.05-3.08-1.77-4.51-1.23-2.44-1.96-3.92-2.17-4.43-2.41-5.69-5.12-11.53-8.15-17.5-1.94-3.83-4.59-8.23-7.95-13.2-2.73-4.06-5.55-8.35-8.45-12.87-3.89-6.09-9.55-12.13-16.97-18.12-1.99-2.16-4.01-4.33-6.08-6.5-3.24-3.41-6.39-5.73-10.62-7.6-1.09-.48-2.11-.98-3.08-1.51-1.05-.57-2.04-.93-2.99-1.08-2.55-.42-4.88-1.49-7.42-1.92-2.5-.43-5.42-2.14-6.19-4.77-.43-1.49-.95-2.94-1.56-4.36-.69-1.63.65-3.94,1.23-5.5.4-1.08,1.01-2,1.83-2.77,1.84-1.71,4.05-2.95,6.64-3.7,2.25-.66,4.4-.72,6.45-.19,1.51.39,2.52.62,3.03.68,1.31.14,2.7.16,3.99.51,18.77,5.19,33.48,17.81,44.44,33.75.75,1.08,1.41,2.26,1.99,3.55.11.26.3.44.56.53.21.08.48.15.8.2Z"/>
  <path class="cls-11" d="m476.34,88.48c-5.46,4.55-10.67,9.41-15.64,14.58-2.45,2.55-4.56,5.17-6.33,7.84-1.9,2.86-3.78,5.68-5.63,8.45-1.64,2.45-2.88,5.04-4.29,7.63-1,1.82-1.92,3.84-2.75,6.05-1.33,3.53-2.63,6.7-3.89,9.5-2.17,4.81-3.84,9.55-5.03,14.23-.47,1.87-.76,3.75-.87,5.63-.11,1.94-.19,3.89-.22,5.85-.02,1.07.78,1.97,1.84,2.09,3.13.35,6.8.06,10.99-.86-8.41,4.78-20.28,2.37-20.44-9.21-.05-3.14.33-6.16,1.12-9.06.68-2.48,1.44-5.03,2.29-7.65.87-2.65,1.82-5.24,2.85-7.77,3.11-7.58,5.68-14.56,7.72-20.94,2.23-6.99,2.74-14.15,1.53-21.46,2.72-.71,2.09-2.37,3.19-4.27,3.99-6.92,8.09-12.66,12.29-17.23,10.05-10.93,21.59-18.06,34.63-21.37,3.65-.93,8.01-1.13,13.08-.62,2.09.21,3.85.93,5.3,2.15,1.29,1.09,2.4,2.38,3.35,3.87,2.6,4.09.78,9.69-2.37,12.87-1.92,1.93-4.4,1.62-6.78,2.67-2.11.92-4.39.47-6.38,1.16-8.57,2.95-15.09,8.24-19.56,15.87Z"/>
  <path class="cls-15" d="m308.87,76.15c-.2.13-.33.28-.38.44-.04.13,0,.3.12.5,5.35,8.46,10.08,17.32,14.19,26.59,2.63,7.66,4.2,13.85,4.69,18.56.72,6.78,1.42,21.2,10.5,22.72,8.07,1.34,10.82-5.83,11.84-12.24,1.11-7.04,2.05-14.18,3.9-21.03.69-2.57,1.45-5.18,2.27-7.84.03-.11.08-.12.14-.03.01.03.02.05.03.08.03.05.05.06.06.01.31-.99.48-1.74.49-2.23,4.48-10.03,9.86-19.19,16.14-27.48,1.93-1.65,3.84-3.28,5.73-4.87,9.25-7.76,19.84-10.75,31.79-8.97,9.25,1.39,16.72,6.26,21.97,14.12,3.71,5.55,6.13,11.85,7.24,18.9,1.21,7.31.7,14.47-1.53,21.46-2.04,6.38-4.61,13.36-7.72,20.94-1.03,2.53-1.98,5.12-2.85,7.77-.85,2.62-1.61,5.17-2.29,7.65-.79,2.9-1.17,5.92-1.12,9.06.16,11.58,12.03,13.99,20.44,9.21,1.22-.52,2.49-1.41,3.81-2.68,6.2-5.96,12.36-11.96,18.48-18.01,5.63-5.55,12.45-11.16,20.46-16.83,2.4-1.26,6.5-3.04,12.31-5.34,12.23-4.85,24.34-4.87,36.33-.06,4.05,1.63,7.41,4.3,10.07,8.03,3.71,5.19,4.08,11.07-.74,15.78-2.3,2.25-4.5,3.24-6.6,2.95-1.17-.16-1.95-.17-2.32-.02l-.8-.14c-.37-.06-.65-.25-.86-.57-3.65-5.68-9.26-8.47-16.81-8.36-5.13.07-9.93,1.34-14.39,3.8-10.14,5.59-19.51,13.78-28.1,24.55-3.68,4.62-5.98,9.04-6.89,13.26-2.21,10.26,2.21,21.21,11.89,25.42,4.43,1.93,9.02,2.26,13.77,1,4.61-1.23,9.7-3.39,15.25-6.5-.11.12-.04.23.21.34.21.09.42.09.63.01,2.89-1.12,5.85-2.03,8.88-2.74,8-1.87,14.24-2.92,18.73-3.17,6.12-.33,11.32-.82,15.6-1.47,11.81-1.8,26.43-15.36,27.49-28.28.24-2.91.34-6.05.31-9.42-.05-5.38,1.89-8.96,5.82-10.74,3.28-1.48,7.17-.79,11.68,2.06,5.29,12.63,4.66,25.38-1.9,38.24-7.05,13.83-18.21,23.23-33.49,28.2-1.11.36-2.3.61-3.56.74-1.31.15-2.53.28-3.66.39-6.61.66-12.93,1.24-18.97,1.73-3.59.29-7.17,1.08-10.74,2.37-11.16,4.01-17.81,15.64-11.73,26.85,2.66,4.92,7.65,7.03,12.97,6.8,5.82-.26,11.41-1.32,16.76-3.17,12.09-4.19,24.29-8.35,36.59-12.5.87-.29,1.77-.55,2.7-.78.97-.23,1.85-.55,2.66-.95-.09.59.17.87.78.84,6.06-.33,11.41.18,16.05,1.53,10.49,3.04,17.98,9.32,22.45,18.83,4.14,8.81,3.93,20.43.22,29.7-1.36,3.41-3.5,6.95-6.43,10.64-4.67,5.91-10.1,10.91-16.27,15.01-.62.41-.91.93-.87,1.55-.17-.22-.37-.28-.6-.17-9.36,4.31-19.55,8.54-30.56,12.69-7.98,2.85-15.96,4.76-22.72,7.54-7.38,3.04-12.08,9.66-9.17,17.81,1.99,4.36,5.01,7.6,9.06,9.73,5.48,2.87,11.43,5.49,17.86,7.87,10.51,3.89,15.78,5.84,15.83,5.86,5.85,2.3,11.98,4.66,18.41,7.08.42.16.72.19.91.08.01.39.18.67.49.85,14.94,8.74,26.51,22.66,25.35,41.01-.76,12.04-7.1,21.49-17.79,27.22-7.19,3.85-15.37,5.5-24.55,4.93-5.8-1.11-10.02-2.04-12.67-2.81-13.28-3.87-26.69-8.27-40.24-13.19-2.09-.76-4.84-1.22-8.24-1.38-5.8-.27-10.23,1.53-13.3,5.38-2.37,2.99-3.46,6.5-3.26,10.55.21,4.05,1.85,7.7,4.94,10.95,6.48,6.83,14.65,10.74,24.5,11.74,6.51.67,13.28,1.44,20.33,2.33,5.52.7,10.27,2,14.24,3.89,10.19,4.87,17.97,11.44,23.34,19.71,6.25,9.61,8.23,20.21,5.94,31.8-3.01,4.51-6.79,6.61-11.35,6.3-1.38-.09-2.59-.44-3.63-1.03-1.31-.75-2.19-1.73-2.63-2.94-.62-1.68-1.2-2.79-1.74-3.34.49-4.51-.08-8.79-1.69-12.84-1.52-3.83-3.96-7.12-7.31-9.88-7.64-6.3-15.73-9.77-25.36-10.82-3.87-.43-7.79-.72-11.77-.89-11.97-.51-23.66-4.15-32.75-11.71-2.48-2.05-5.07-4.09-7.77-6.12-7.49-5.61-17.26-4.05-22.86,3.2-2.95,3.81-4.26,8.03-3.94,12.65.29,4.12,2.42,8.29,4.72,11.64,5.18,7.53,12.07,15.13,20.67,22.78,3.71,3.29,7.29,5.91,10.75,7.84,4.85,2.72,14.57,5.17,18.52-.6.98-1.44,1.88-2.9,2.71-4.37,2.94-5.26,8.91-5.33,13.44-1.9,2.96,2.24,4.9,5.29,5.81,9.14.09,2.81-.5,5.3-1.75,7.45-2.85,4.91-6.68,8.54-11.5,10.91-6.6,3.24-13.51,4.44-20.74,3.59-7.27-.85-14.04-3.12-20.33-6.82-.19-.11-.4-.09-.62.07-.1-.33-.3-.6-.61-.8-5.5-3.66-10.64-7.77-15.43-12.32-7.35-7-13.85-13.68-19.48-20.03-5.21-5.88-9.76-11.18-18.35-9.95-2.81.41-4.87,1.36-6.17,2.87-6.37,8.29-3.77,17.45-.46,26.32,1.45,3.88,4.18,11.8,8.21,23.76,2.63,7.83,4.16,15.84,4.59,24.02-.04-.05-.12-.05-.23,0-.12.05-.2.18-.2.31.58,21.41-13.93,36.25-35.25,36.6-9.44.16-17.99-3.21-25.65-10.12-2.56-2.31-6.03-6.11-10.42-11.38-1.89-3.06-3.23-5.3-4.01-6.71-7.47-13.53-12.68-27.77-15.63-42.71-.91-4.57-3.13-11.54-7.8-13.48-3.04-1.26-5.78-.91-8.23,1.04-5.01,4-5.21,8.21-6.56,13.58-1.84,6.08-3.68,12.15-5.52,18.22-2.71,8.95-7.6,18.29-14.69,28.04-.17.23-.12.4.15.49l.35.13-.66.07c-.37.04-.66.21-.89.5-6.37,8.35-12.56,13.91-22.47,17.11-11.9,3.85-24.57.99-33.66-7.68-5.54-5.28-9.43-12.14-11.66-20.57-1.32-6.44-1.09-12.94.68-19.49,3.17-11.71,8.49-25.57,13.74-37.82,1.04-2.43,1.75-4.8,2.13-7.09.38-2.31.27-4.6-.32-6.87-1.36-5.19-4.77-8.19-10.23-9.02-2.44-.37-4.91-.06-7.41.94-3.21,1.29-5.49,2.6-6.83,3.92-5.15,5.07-10.21,10.09-15.17,15.07-4.81,4.83-11.33,10.58-19.56,17.24-6.92,3.93-13.94,6.97-21.05,9.1-13.25,3.97-33.82,2.78-39.82-12.56-.61-1.54-.52-3.48.26-5.81,1.62-4.84,5.19-7.02,10.72-6.55,3.39,2.17,6.23,3.77,8.52,4.8,6.09,2.72,13.46,1.21,19.34-2,10.44-5.69,20.01-13.77,27.93-23.02,2.16-2.53,4.25-5.39,6.28-8.56.51-.81.83-1.52.97-2.14.07-.32.2-.62.39-.89.87-1.27,1.42-2.92,1.65-4.93.82-7-1.2-12.38-6.07-16.13-6.5-5.01-14.55-3.59-20.8.85-2.95,2.11-5.87,4.25-8.75,6.44-2.81,2.13-5.88,3.97-9.22,5.52-4.04,1.87-8.16,3.42-12.35,4.66,0-.11-.05-.21-.12-.31-.17-.22-.39-.33-.66-.33-5.17.03-10.11,0-14.81-.09-6.9-.12-11.79.17-14.68.86-9.43,2.25-16.48,7.71-21.13,16.36-1.13,2.11-1.97,4.36-2.5,6.75-.96,4.34.32,8.65-.96,12.96-1.97,6.63-11.13,8.46-16.03,4.28-.51-.43-1.52-1.71-3.05-3.84-1.13-3.95-1.61-7.99-1.43-12.13.16-3.76.99-7.45,2.49-11.08,5.55-13.36,14.85-23.53,27.91-30.5,6.28-3.35,13.03-4.9,19.99-5.11,5.33-.16,10.64-.31,15.93-.44,9.57-.23,17.18-4.12,22.84-11.67,5.34-7.13,6.1-16.73.8-24.33-3.46-4.96-9.13-6.85-15.02-6.14-3.35.41-5.52.81-6.52,1.2-7.61,2.99-15.21,5.99-22.8,9-9.01,3.57-18.09,6.26-27.22,8.07-2.22-.33-4.79-.47-7.71-.42-4.49.09-8.76-.75-12.82-2.5-12.9-5.56-20.66-14.92-23.27-28.07-.71-3.57-.5-7.77.63-12.6,2.35-10.07,7.84-18.36,16.49-24.85,1.55-1.17,5.21-3.37,10.96-6.6.2-.11.4-.36.59-.75h.35c.23.02.45-.03.66-.14,4.46-2.41,9.12-4.48,13.97-6.21,8.94-3.19,18.12-7.03,27.55-11.52,4.12-1.96,7.21-3.7,9.26-5.23,9.06-6.71,11.01-15.04,5.85-24.97l-9.98-6.05-29.5-9.22-19.93-6.91c-.24-.89-.65-1.5-1.22-1.82-11.51-6.5-20.77-16.75-25.21-29.38-.87-2.48-.87-4.84-1.37-7.36-1.04-5.28.38-11.8,2.57-16.59,6.7-14.63,18.25-21.9,34.66-21.81.15,0,.28-.1.32-.24.03-.09.05-.17.07-.24.13.07.26.14.39.21.13.08.26.13.41.15,4.53.66,8.85,1.67,12.96,3.02,11.21,3.71,22.78,7.61,34.71,11.68,2.45.83,4.93,1.63,7.45,2.38,9.65,2.88,18.95-.48,22.23-10.29,1.12-3.34,1.23-6.72,0-10-5.27-14.2-21.86-14.18-34.23-14.71-14.26-.61-25.53-7.41-36.72-15.78-4.67-3.49-8.11-7.91-11.44-12.56-4.24-5.93-6.9-12.47-7.98-19.64-1.18-7.79.1-14.86,3.84-21.2,2.96-3.33,6.28-4.56,9.97-3.71,5.14,1.19,7.69,5.13,7.65,11.8-1.28,6.59-.22,12.79,3.19,18.6,6.91,11.79,17.26,18.59,31.04,20.41,3.93.52,8.54.93,13.83,1.23,3.9.22,8.31.88,13.23,1.98,6.51,1.46,12.13,4.17,17.8,7.55,9.49,5.67,19.84,6.86,28.34-.8,3.39-3.05,7.08-7.07,8.54-11.49.47-1.41.9-2.79,1.3-4.14,1.28-4.35.68-8.55-1.07-12.74-5.08-12.15-14.37-21.4-25.14-29.59-7.62-5.78-15.88-9.45-25.56-6.87-2.91.77-7.8,4.63-4.24,8.09,3.85,3.75,6.03,8.08,4.05,13.37-3.65,9.72-13.35,8.99-19.92,3.01-2.8-2.55-4.69-4.61-5.66-6.2-2.9-8.73-2.54-16.59,1.09-23.6,3.32-6.43,8.26-11.29,14.83-14.6,3.87-1.95,8.18-3.04,12.91-3.27,4.55-.21,8.98.12,13.3,1,3.18.65,6.49,1.64,9.93,2.98,6.07,3.13,10.06,5.41,11.96,6.82,12.31,9.16,21.65,20.01,30.83,32.36,2.17,2.92,5.07,5.44,8.29,6.82,2.06.88,4.37.68,6.94-.61,3-1.09,4.98-3.45,5.95-7.08,1.37-5.15.8-10.5-1.72-16.05-2.39-5.26-4.66-10.49-6.83-15.68-3.81-9.15-6.48-17.21-8.01-24.17-1.15-5.2-1.3-11.06-.45-17.58.41-1.08.73-2.23.96-3.44.29-1.45.6-2.58.95-3.39,3.32-7.87,8.51-13.94,15.56-18.19,5.39-3.26,11.78-4.82,19.17-4.68,12.86.24,25.15,8.62,32.58,18.75.49.66,1.2.95,2.13.86Zm-13.39,24.34c-2.19-4.72-4.65-9.34-7.58-13.84-2.95-4.51-6.64-7.36-11.08-8.54-4.93-1.31-9.06-.56-12.41,2.27-5.25,4.45-6.57,10.45-3.98,18,4.49,13.08,9.44,25.55,14.85,37.41,2.15,4.73,4.42,8.73,6.81,12,2.41,3.29,6.08,4.97,11.02,5.04,8.1.11,14.05-5.51,14.11-13.61.02-3.63-.42-7.09-1.33-10.36-2.69-9.73-6.16-19.18-10.41-28.37Zm106.6,39.68c4.29-8.04,7.04-16.55,10.67-24.95,1.03-2.38,1.93-4.72,2.7-7.01.81-2.42,1.59-4.75,2.33-6.98.09-.27.23-.52.42-.73.21-.25.33-.55.35-.88.11-1.81.14-3.74.07-5.77-.35-10.44-12.17-15.29-21.11-11.43-4.12,1.79-7.34,5.05-9.65,9.78-4.7,9.65-8.77,19.37-12.22,29.18-1.56,4.42-2.61,9.1-3.39,13.73-1.3,7.75,2.09,18.46,11.54,19.09,7.95.53,12.74-1.84,15.99-9.28.69-1.59,1.46-3.17,2.3-4.75Zm-237.73,184.78c-1.87,14.39-1.25,27.97.05,40.41.97,9.22,2.98,18.7,6.03,28.43,6.43,20.5,16.03,39.3,28.79,56.41,3.16,4.23,6.78,8.46,10.85,12.67,7.97,8.24,16.46,16.51,25.81,23.04,8.42,5.88,17.54,11.82,26.51,15.83,20.21,9.05,40.2,14.52,59.99,16.41,25.13,2.41,50.36-.68,75.69-9.25,4.79-1.63,10.26-3.89,16.39-6.78,5.71-2.69,10.92-5.38,15.64-8.05,8.33-4.73,17.17-11.14,26.5-19.25,13.96-12.13,25.58-26.25,34.85-42.35,3.88-6.74,7.37-14.19,10.52-21.34,7.58-17.22,11.81-35.31,12.68-54.26.41-8.79.3-17.38-.33-25.79-.91-7.55-2.14-14.87-3.68-21.96-5.46-25.04-15.85-47.28-31.17-66.73-13.56-17.21-31.4-33.17-50.94-44.68-5.34-3.14-10.2-5.71-14.57-7.7-18.17-8.26-36.57-13.43-55.2-15.51-12.32-1.37-26.17-1.3-41.56.21-11.01,1.09-22.11,4.2-32.42,7.33-7.47,2.27-14.69,5.01-21.68,8.22-2.01.92-4.03,1.35-5.98,2.51-4.73,2.81-9.44,5.62-14.14,8.41-5.03,2.99-11.26,7.23-14.94,10.49-5.17,4.59-9.76,8.82-13.78,12.71-7.3,7.06-13.43,14.78-19.84,22.4-.79.93-1.51,1.93-2.16,2.99-1.61,2.6-3.41,5.01-4.77,7.75-2.79,5.63-6.39,10.41-9,16.05-7.51,16.25-12.22,33.38-14.14,51.38Zm-18.44-42.7c-1.51-2.31-3.38-4.09-5.62-5.34-4.17-2.33-8.84-4.4-13.28-6.04-10.23-3.78-20.11-7.46-29.64-11.03-7.9-2.96-19.61-3.52-23.19,5.77-1.79,4.63-1.54,8.8.74,12.51,4.17,6.79,12.54,11.98,19.69,15.12,11.84,5.21,23.64,9.36,35.4,12.44,8.14,2.14,15.79-1.85,18.16-10.23,1.29-4.53.53-8.93-2.26-13.2Zm386.22,19.56c2.06,7.68,6.91,11.65,14.57,11.47,2.81-.06,5.34-.42,7.58-1.08,15.72-4.63,30.74-11.47,45.07-20.53,5.81-3.67,11.74-11.92,8.92-18.96-5.78-14.43-18.23-12.04-30.14-6.77-12.5,5.53-25.27,9.51-37.16,16.45-6.82,3.98-10.94,11.56-8.84,19.42Zm-383.3,94.35c-1.98-4.5-5.04-7.16-9.18-7.99-5.17-1.04-11.73.17-16.82,2.18-11.67,4.6-22.54,9.28-32.61,14.05-8.44,4-17.08,9.42-15.6,20.18.52,3.78,2.36,6.87,5.53,9.26,5.91,4.46,14.93,3.49,21.47,1.17,14.27-5.04,27.11-10.36,38.51-15.96,1.91-.93,3.76-2.13,5.56-3.59,2.93-2.37,4.55-5.46,4.84-9.27.27-3.55-.22-6.81-1.47-9.78-.03-.07-.08-.12-.14-.15-.04-.02-.07-.05-.09-.1Zm380.63,8.61c-1.77,7.68,3.31,14.16,10.03,17.05,9.19,3.97,18.79,7.69,28.79,11.16,5.82,2.03,11.73,3.61,17.72,4.76,8.61,1.65,18.28.4,20.52-9.34,2.09-9.1-4.94-15.96-12.36-19.29-13.73-6.17-27.68-11.45-41.84-15.83-5.08-1.57-11.4-2.21-16.05.93-3.46,2.34-5.73,5.86-6.81,10.56Zm-223.9,142.52c-.91-5.36-5.22-9.44-10.44-10.41-9.5-1.78-15.44,3.97-19.21,12.11-5.74,12.41-10.67,25.54-14.77,38.27-2.23,6.93-.76,12.8,4.42,17.6,4.13,3.82,11.58,5.03,16.49,1.37,4.47-3.33,7.78-9.04,10.07-14.17,3.81-8.52,7.04-16.45,9.69-23.78,2.38-6.57,4.93-13.99,3.75-20.99Zm113.96,47.98c-.67-3.77-1.77-7.6-3.32-11.5-3.79-9.58-7.46-18.92-11.01-28.03-1.38-3.54-3.23-6.93-5.18-10.24-3.7-6.27-9.18-8.61-16.43-7-9.05,2.01-12.12,11.2-10.2,19.27,3,12.63,7.31,24.87,12.94,36.7,1.97,4.16,4.44,8.04,7.4,11.65,4.03,4.93,8.88,7.06,14.55,6.39,8.35-.99,12.58-9.63,11.25-17.24Z"/>
  <path class="cls-11" d="m287.9,86.65c2.93,4.5,5.39,9.12,7.58,13.84,4.25,9.19,7.72,18.64,10.41,28.37.91,3.27,1.35,6.73,1.33,10.36-.06,8.1-6.01,13.72-14.11,13.61-4.94-.07-8.61-1.75-11.02-5.04-2.39-3.27-4.66-7.27-6.81-12-5.41-11.86-10.36-24.33-14.85-37.41-2.59-7.55-1.27-13.55,3.98-18,3.35-2.83,7.48-3.58,12.41-2.27,4.44,1.18,8.13,4.03,11.08,8.54Z"/>
  <path class="cls-11" d="m399.78,144.92c-3.25,7.44-8.04,9.81-15.99,9.28-9.45-.63-12.84-11.34-11.54-19.09.78-4.63,1.83-9.31,3.39-13.73,3.45-9.81,7.52-19.53,12.22-29.18,2.31-4.73,5.53-7.99,9.65-9.78,8.94-3.86,20.76.99,21.11,11.43.07,2.03.04,3.96-.07,5.77-.02.33-.14.63-.35.88-.19.21-.33.46-.42.73-.74,2.23-1.52,4.56-2.33,6.98-.77,2.29-1.67,4.63-2.7,7.01-3.63,8.4-6.38,16.91-10.67,24.95-.84,1.58-1.61,3.16-2.3,4.75Z"/>
  <path class="cls-12" d="m204.5,86.92c7.42,5.99,13.08,12.03,16.97,18.12,2.9,4.52,5.72,8.81,8.45,12.87,3.36,4.97,6.01,9.37,7.95,13.2,3.03,5.97,5.74,11.81,8.15,17.5.21.51.94,1.99,2.17,4.43.72,1.43,1.31,2.94,1.77,4.51.46,1.6.17,3.22.74,4.85.37,1.05-.07,1.91-1.31,2.59-.73.4-1,1-.81,1.81-2.57,1.29-4.88,1.49-6.94.61-3.22-1.38-6.12-3.9-8.29-6.82-9.18-12.35-18.52-23.2-30.83-32.36-1.9-1.41-5.89-3.69-11.96-6.82-1.29-3.41-2.05-6.35-2.29-8.8-.44-4.45-.28-8.24.49-11.35.61-2.49,1.83-4.99,3.67-7.52,2.79-3.84,6.53-5.86,11.24-6.05.35-.01.63-.27.83-.77Z"/>
  <path class="cls-12" d="m476.34,88.48c1.99.89,4.02,1.33,6.07,1.33.73,0,2.03.57,3.88,1.72,1.24.76,2.23,1.65,2.96,2.67,1.32,1.84,3.1,4.12,3.52,6.41.15.8.33,1.57.56,2.32,1.44,4.69,1.42,9.12-.05,13.29-.69,1.94-.38,4.17-1.44,5.89-.87,1.42-1.5,2.94-1.89,4.57-.08.34-.24.64-.47.9-1.15,1.26-1.88,2.72-2.21,4.37-8.01,5.67-14.83,11.28-20.46,16.83-6.12,6.05-12.28,12.05-18.48,18.01-1.32,1.27-2.59,2.16-3.81,2.68-4.19.92-7.86,1.21-10.99.86-1.06-.12-1.86-1.02-1.84-2.09.03-1.96.11-3.91.22-5.85.11-1.88.4-3.76.87-5.63,1.19-4.68,2.86-9.42,5.03-14.23,1.26-2.8,2.56-5.97,3.89-9.5.83-2.21,1.75-4.23,2.75-6.05,1.41-2.59,2.65-5.18,4.29-7.63,1.85-2.77,3.73-5.59,5.63-8.45,1.77-2.67,3.88-5.29,6.33-7.84,4.97-5.17,10.18-10.03,15.64-14.58Z"/>
  <path class="cls-11" d="m586.36,240.26c-.81.4-1.69.72-2.66.95-.93.23-1.83.49-2.7.78-12.3,4.15-24.5,8.31-36.59,12.5-5.35,1.85-10.94,2.91-16.76,3.17-5.32.23-10.31-1.88-12.97-6.8-6.08-11.21.57-22.84,11.73-26.85,3.57-1.29,7.15-2.08,10.74-2.37,6.04-.49,12.36-1.07,18.97-1.73,1.13-.11,2.35-.24,3.66-.39,1.26-.13,2.45-.38,3.56-.74,15.28-4.97,26.44-14.37,33.49-28.2,6.56-12.86,7.19-25.61,1.9-38.24-.97-3.07-1.1-5.48-.39-7.23,1.57-3.83,4.4-5.7,8.49-5.63,1.98.04,3.57.45,4.76,1.23,1.51.99,3.01,2.36,4.52,4.1,1.29,1.49,2.34,3.06,3.15,4.71.93,1.89,1.82,3.81,2.67,5.76.37.85.66,1.75.85,2.71.2.99.46,1.94.77,2.86.7,2.03,1.15,4.68,1.35,7.97.05.75.62,1.38.69,2.08.4,3.67.54,7.62.43,11.87-.07,2.66-.96,4.78-1.26,7.27-.22,1.86-.17,3.49-.96,5.29-.95,2.18-1.32,4.29-2.34,6.51-3.59,7.75-7.52,14.04-11.81,18.88-3.37,3.79-7.04,7.37-11.02,10.74-3.34,2.83-7.29,5.34-11.85,7.55-.3.15-.44.56-.42,1.25Z"/>
  <path class="cls-11" d="m81.15,148.4c-3.74,6.34-5.02,13.41-3.84,21.2,1.08,7.17,3.74,13.71,7.98,19.64,3.33,4.65,6.77,9.07,11.44,12.56,11.19,8.37,22.46,15.17,36.72,15.78,12.37.53,28.96.51,34.23,14.71,1.22,3.28,1.11,6.66,0,10-3.28,9.81-12.58,13.17-22.23,10.29-2.52-.75-5-1.55-7.45-2.38-11.93-4.07-23.5-7.97-34.71-11.68-4.11-1.35-8.43-2.36-12.96-3.02-.15-.02-.28-.07-.41-.15-.13-.07-.26-.14-.39-.21-.03-.1-.07-.2-.12-.29-.06-.13-.15-.24-.28-.31-10.18-6.15-18.24-14.31-24.18-24.5-1.62-2.79-3.24-5.86-4.87-9.21-1.61-3.31-2.77-6.47-3.48-9.47-.43-1.79-.91-3.62-1.46-5.48-.6-2.07-.93-4.07-1-6-.17-5.1-.13-10.1.12-14.99.18-3.61,1.48-6.52,2.11-9.97.17-.97.5-1.99.98-3.05.45-1.01.9-2.01,1.35-3,.71-1.55,1.63-3.04,2.76-4.47,2.81-3.51,8.11-5.55,12.19-4.06,3.27,1.19,5.78,3.88,7.51,8.06Z"/>
  <path class="cls-11" d="m98.77,156.49c1.8-4.47,4.98-7.55,9.54-9.23,2.57-.94,5.11-1.34,7.62-1.21,2.09.12,4.47.87,7.14,2.25,5.08,2.63,10.22,6.17,15.43,10.6.97,1.59,2.86,3.65,5.66,6.2,6.57,5.98,16.27,6.71,19.92-3.01,1.98-5.29-.2-9.62-4.05-13.37-3.56-3.46,1.33-7.32,4.24-8.09,9.68-2.58,17.94,1.09,25.56,6.87,10.77,8.19,20.06,17.44,25.14,29.59,1.75,4.19,2.35,8.39,1.07,12.74-.4,1.35-.83,2.73-1.3,4.14-1.46,4.42-5.15,8.44-8.54,11.49-8.5,7.66-18.85,6.47-28.34.8-5.67-3.38-11.29-6.09-17.8-7.55-4.92-1.1-9.33-1.76-13.23-1.98-5.29-.3-9.9-.71-13.83-1.23-13.78-1.82-24.13-8.62-31.04-20.41-3.41-5.81-4.47-12.01-3.19-18.6Z"/>
  <path class="cls-11" d="m536.32,153.29c.05,1.84.42,3.56,1.13,5.17.63,1.44.95,2.64.96,3.59.02,2.65.27,5.55-.71,8.05-1.13,2.85-1.72,5.55-3.26,8.32-2.25,4.07-4.76,7.5-7.53,10.29-1.94,1.95-4.66,4.62-8.16,8.01-2.61,2.53-5.57,4.98-8.86,7.35-.53.38-.7.94-.51,1.68-5.55,3.11-10.64,5.27-15.25,6.5-4.75,1.26-9.34.93-13.77-1-9.68-4.21-14.1-15.16-11.89-25.42.91-4.22,3.21-8.64,6.89-13.26,8.59-10.77,17.96-18.96,28.1-24.55,4.46-2.46,9.26-3.73,14.39-3.8,7.55-.11,13.16,2.68,16.81,8.36.21.32.49.51.86.57l.8.14Z"/>
  <path class="cls-14" d="m514.32,331.08c-.43.78-.04,8.6,0,8.99.77,7.63-2.45,11.69-12.03,14.45-4.12,1.18-7.59.39-10.42-2.38-1.64-1.61-2.85-3.29-3.63-5.04-.59-15.21-2.65-28.12-6.16-38.73-4.31-13.02-9.65-24.47-16.04-34.36-6.65-10.27-15.79-20.63-27.43-31.08-11.51-10.33-25.35-19.09-41.51-26.26-10.44-4.63-22.67-7.8-33.56-9.78-35.04-6.37-74.53,1.75-104.8,21.55-26.43,17.27-49.64,42.56-60.1,73.36-2.56,7.54-4.6,15.14-6.13,22.8-1.43,7.19-1.89,14.75-1.38,22.7-1.19,2.43-2.82,4.9-4.9,7.41-2.35,2.83-5.32,4.11-8.89,3.86-13.15-.93-12.24-8.62-12.99-8.59-1.14.05.09-24.24,0-25.03,1.92-18,6.63-35.13,14.14-51.38,2.61-5.64,6.21-10.42,9-16.05,1.36-2.74,3.16-5.15,4.77-7.75.65-1.06,1.37-2.06,2.16-2.99,6.41-7.62,12.54-15.34,19.84-22.4,4.02-3.89,8.61-8.12,13.78-12.71,3.68-3.26,9.91-7.5,14.94-10.49,4.7-2.79,9.41-5.6,14.14-8.41,1.95-1.16,3.97-1.59,5.98-2.51,6.99-3.21,14.21-5.95,21.68-8.22,10.31-3.13,21.41-6.24,32.42-7.33,15.39-1.51,29.24-1.58,41.56-.21,18.63,2.08,37.03,7.25,55.2,15.51,4.37,1.99,9.23,4.56,14.57,7.7,19.54,11.51,37.38,27.47,50.94,44.68,15.32,19.45,25.71,41.69,31.17,66.73,1.54,7.09,2.77,14.41,3.68,21.96Z"/>
  <path class="cls-11" d="m488.24,347.1c-7.4-5.23-15.18-8.54-23.34-9.91-4.51-.76-9.04-.59-13.61.52-5.76,1.4-10.92,3.75-15.48,7.06-.59.43-1.15.96-1.7,1.57-.48.55-1.05,1.02-1.71,1.4-.28.16-.51.38-.7.65-.72,1.05-1.57,1.99-2.56,2.8-.22.18-.36.44-.39.73-.05.58-.33.94-.86,1.09-.11.03-.16.11-.15.22,0,.12-.01.23-.07.33-3.71,5.77-5.93,11.54-6.65,17.33-.59,4.72-.24,9.11,1.05,13.18.7,2.23,1.57,4.47,2.6,6.74,4.85,10.65,12.64,17.2,23.36,19.63,5.16,1.18,10.69,1.01,16.06.83,1.12-.03,2.19-.21,3.22-.54,2.67-.85,3.32-.05,1.95,2.39-2.36,4.21-5.05,8.2-8.06,11.96-1.33,1.66-2.96,2.9-4.12,4.71-.46.72-.96,1.4-1.5,2.05-.55.66-1.1,1.32-1.64,1.99-.83,1.03-1.68,1.99-2.56,2.88-5.43,5.48-11.11,10.69-17.04,15.63-2.04,1.7-4.52,3.5-7.44,5.41-2.8,1.83-5.35,3.55-7.65,5.16-1.09.77-2.58,1.57-4.46,2.42-1.69.77-3.17,1.6-4.42,2.5-1.07.78-2.16.72-3.22,1.45-.68.47-1.4.87-2.16,1.2-3.11,1.36-6.16,2.73-9.17,4.11-1.47.68-2.96,1.29-4.45,1.82-1.61.57-3.17,1.08-4.68,1.55-5.73,1.75-12.11,3.45-19.14,5.08-3.45.81-7.11,1.37-10.97,1.69-14.19,1.18-27.85,1.36-42.13-.92-4.53-.72-10.12-1.87-16.79-3.46-2.97-.7-6.08-1.7-9.33-2.99-3.11-1.23-6.18-2.39-9.19-3.48-5.31-1.92-11.82-5.18-19.54-9.77-2.42-1.44-4.6-3.26-7.04-4.73-1.71-1.03-3.42-2.19-5.12-3.49-6.41-4.91-12.19-10.04-17.34-15.39-1.69-1.75-3.32-3.64-4.87-5.66-1.33-1.73-2.83-3.58-4.48-5.54-2.8-3.31-6.31-8.37-10.52-15.18-2.72-4.38-4.94-9.29-6.67-14.73-.83-2.62-1.34-5.03-1.55-7.23-.36-3.89-.89-8.99.79-12.69,2.5-5.51,7.3-11.51,13.4-12.71,2.25-.45,4.61-.21,7.08.71,1.59.59,3.11,1.58,4.54,2.97,3.5,3.39,5.27,6.03,4.64,11.34-.47,3.85-4.14,6.95-7.37,8.59-4.03,2.04-6.01,5.27-5.94,9.68.01,1.22.24,2.38.69,3.49,1.08,2.66,2.56,3.78,4.94,5.05,1.2.64,2.47,1.06,3.82,1.25,3.8.55,6.68.58,8.63.11,5.56-1.35,10.4-4.93,14.51-10.72,3.45-4.85,5.58-10.17,6.39-15.94.73-5.21.59-9.92-.42-14.13-3.3-13.75-12.75-23-26.01-28.49-9.22-3.82-20.94-2.79-29.91.81-1.29.52-3.07,1.47-5.36,2.86-1.7,1.03-3.47,2.02-5.3,2.96-.51-7.95-.05-15.51,1.38-22.7,1.53-7.66,3.57-15.26,6.13-22.8,10.46-30.8,33.67-56.09,60.1-73.36,30.27-19.8,69.76-27.92,104.8-21.55,10.89,1.98,23.12,5.15,33.56,9.78,16.16,7.17,30,15.93,41.51,26.26,11.64,10.45,20.78,20.81,27.43,31.08,6.39,9.89,11.73,21.34,16.04,34.36,3.51,10.61,5.57,23.52,6.16,38.73Zm-59.73-32.96c1.41,3.27,4.8,4.99,8.16,5.18,9.53.54,14.2-7.94,11.08-16.36-4.81-13.03-16.62-23.53-30.98-25.51-10.16-1.39-19.97.14-28.43,5.97-7.3,5.04-12.31,11.53-15.03,19.48-.94,2.74-.59,6.02.31,8.66,3.33,9.87,16.58,10.32,20.21.24,2.58-7.14,7.74-11.79,15.32-12.3,6.42-.44,11.48,1.69,15.19,6.4,1.96,2.49,2.93,5.4,4.17,8.24Zm-173.86-35.19c-3.5,1.24-5.25,1.83-7.73,3.36-7.73,4.77-13.18,11.02-16.34,18.73-.68,1.67-1.05,3.36-1.11,5.09-.07,1.76.11,3.47.53,5.14,1.12,4.44,5.23,7.42,9.72,7.64,6.01.29,9.27-3.39,10.98-8.66.38-1.16.95-2.24,1.72-3.24,3.62-4.74,8.17-7.21,13.64-7.42,6.69-.25,11.72,2.02,15.09,6.81,3.57,5.06,3.18,10.92,10.67,12.65,6.5,1.49,11.87-3.76,12.48-9.98.56-5.79-2.2-11.09-5.73-15.96-8.16-11.27-19.43-16.59-33.81-15.96-3.83.17-7.2.77-10.11,1.8Zm100.06,58.86c3.19-8.34-1.1-17.73-9.59-20.99-8.5-3.26-17.98.85-21.18,9.18-3.19,8.34,1.1,17.73,9.59,20.99,8.5,3.26,17.98-.85,21.18-9.18Zm-61.57,44.55c1.68,2.1,3.7,3.89,6.05,5.38,4.18,3.1,7.11,5.03,8.78,5.8,9.84,4.51,19.69,6.91,29.54,7.19,19.03.55,35.52-5.96,49.46-19.53,6.31-6.15,12.47-14.88,7.43-23.7-3.51-6.14-12.77-7.11-16.87-.78-7.15,11.02-16,18.74-29.18,20.89-16.1,2.63-31.9-1.15-42.33-14.04-1.65-2.05-3.2-4.11-4.63-6.19-3.02-4.37-9.26-6.34-14.07-3.42-9.73,5.89-3.94,17.66,1.92,23.98.41.44,1.02,1.2,1.84,2.28.6.79,1.29,1.51,2.06,2.14Z"/>
  <path class="cls-11" d="m145.91,282.25c2.79,4.27,3.55,8.67,2.26,13.2-2.37,8.38-10.02,12.37-18.16,10.23-11.76-3.08-23.56-7.23-35.4-12.44-7.15-3.14-15.52-8.33-19.69-15.12-2.28-3.71-2.53-7.88-.74-12.51,3.58-9.29,15.29-8.73,23.19-5.77,9.53,3.57,19.41,7.25,29.64,11.03,4.44,1.64,9.11,3.71,13.28,6.04,2.24,1.25,4.11,3.03,5.62,5.34Z"/>
  <path class="cls-11" d="m532.13,301.81c-2.1-7.86,2.02-15.44,8.84-19.42,11.89-6.94,24.66-10.92,37.16-16.45,11.91-5.27,24.36-7.66,30.14,6.77,2.82,7.04-3.11,15.29-8.92,18.96-14.33,9.06-29.35,15.9-45.07,20.53-2.24.66-4.77,1.02-7.58,1.08-7.66.18-12.51-3.79-14.57-11.47Z"/>
  <path class="cls-15" d="m436.67,319.32c-3.36-.19-6.75-1.91-8.16-5.18-1.24-2.84-2.21-5.75-4.17-8.24-3.71-4.71-8.77-6.84-15.19-6.4-7.58.51-12.74,5.16-15.32,12.3-3.63,10.08-16.88,9.63-20.21-.24-.9-2.64-1.25-5.92-.31-8.66,2.72-7.95,7.73-14.44,15.03-19.48,8.46-5.83,18.27-7.36,28.43-5.97,14.36,1.98,26.17,12.48,30.98,25.51,3.12,8.42-1.55,16.9-11.08,16.36Z"/>
  <path class="cls-15" d="m254.65,278.95c2.91-1.03,6.28-1.63,10.11-1.8,14.38-.63,25.65,4.69,33.81,15.96,3.53,4.87,6.29,10.17,5.73,15.96-.61,6.22-5.98,11.47-12.48,9.98-7.49-1.73-7.1-7.59-10.67-12.65-3.37-4.79-8.4-7.06-15.09-6.81-5.47.21-10.02,2.68-13.64,7.42-.77,1-1.34,2.08-1.72,3.24-1.71,5.27-4.97,8.95-10.98,8.66-4.49-.22-8.6-3.2-9.72-7.64-.42-1.67-.6-3.38-.53-5.14.06-1.73.43-3.42,1.11-5.09,3.16-7.71,8.61-13.96,16.34-18.73,2.48-1.53,4.23-2.12,7.73-3.36Z"/>
  <path class="cls-14" d="m79.7,312.58l19.93,6.91c-8.19,2.19-16.19,3.55-24,4.1-15.84,1.1-29.79,3.06-44.24,9.46-7.39,3.27-14.59,8.54-21.62,15.79-3.9.07-6.89-1.32-8.96-4.17-.36-4.11.7-7.59,3.19-10.45,3.59-4.14,7.66-7.75,12.52-10.32,10.18-5.39,21.45-8.97,33.81-10.75,4.77-.69,8.85-.52,13.56-.99,1.77-.18,3.69-.11,5.76.22,2.85.45,6.2.52,10.05.2Z"/>
  <ellipse class="cls-15" cx="339.32" cy="331.9" rx="16.16" ry="16.48" transform="translate(-92.14 529.74) rotate(-69)"/>
  <path class="cls-14" d="m677.83,350.74c-3.75,1.45-6.93,1.14-9.54-.91-12.05-12.95-26.68-20.07-43.9-21.36-16.32-1.23-33.75-.25-52.28,2.92-.96.17-1.29,0-.98-.51,11.01-4.15,21.2-8.38,30.56-12.69.23-.11.43-.05.6.17.05.05.1.12.15.2.07.14.18.21.33.21,1.31.01,2.58-.13,3.81-.44,1.29-.33,2.53-.59,3.72-.79,11.3-1.95,22.67-1.48,34.12,1.4,12.69,3.2,25.96,9.21,32.12,21.02,1.78,3.41,2.21,7.01,1.29,10.78Z"/>
  <path class="cls-11" d="m99.63,319.49l29.5,9.22c-2.21,1.33-4.48,2.47-6.81,3.42-3.23,1.33-5.54,2.36-6.94,3.09-6.64,3.48-12.46,6.14-17.45,7.98-4.14,1.51-8.61,3.08-13.42,4.71-5.15,1.75-10.06,3.07-14.72,3.97-9.92,1.92-17.59,3-23.01,3.23-6.56.29-14.11-.03-22.64-.96-5.53-.61-10.32-2.38-14.37-5.31,7.03-7.25,14.23-12.52,21.62-15.79,14.45-6.4,28.4-8.36,44.24-9.46,7.81-.55,15.81-1.91,24-4.1Z"/>
  <path class="cls-13" d="m164.35,324.95c.09.79-.16,32.69,12.99,33.62,3.57.25,6.54-1.03,8.89-3.86,2.08-2.51,3.71-4.98,4.9-7.41,1.83-.94,3.6-1.93,5.3-2.96,2.29-1.39,4.07-2.34,5.36-2.86,8.97-3.6,20.69-4.63,29.91-.81,13.26,5.49,22.71,14.74,26.01,28.49,1.01,4.21,1.15,8.92.42,14.13-.81,5.77-2.94,11.09-6.39,15.94-4.11,5.79-8.95,9.37-14.51,10.72-1.95.47-4.83.44-8.63-.11-1.35-.19-2.62-.61-3.82-1.25-2.38-1.27-3.86-2.39-4.94-5.05-.45-1.11-.68-2.27-.69-3.49-.07-4.41,1.91-7.64,5.94-9.68,3.23-1.64,6.9-4.74,7.37-8.59.63-5.31-1.14-7.95-4.64-11.34-1.43-1.39-2.95-2.38-4.54-2.97-2.47-.92-4.83-1.16-7.08-.71-6.1,1.2-10.9,7.2-13.4,12.71-1.68,3.7-1.15,8.8-.79,12.69.21,2.2.72,4.61,1.55,7.23,1.73,5.44,3.95,10.35,6.67,14.73,4.21,6.81,7.72,11.87,10.52,15.18,1.65,1.96,3.15,3.81,4.48,5.54,1.55,2.02,3.18,3.91,4.87,5.66,5.15,5.35,10.93,10.48,17.34,15.39,1.7,1.3,3.41,2.46,5.12,3.49,2.44,1.47,4.62,3.29,7.04,4.73,7.72,4.59,14.23,7.85,19.54,9.77,3.01,1.09,6.08,2.25,9.19,3.48,3.25,1.29,6.36,2.29,9.33,2.99,6.67,1.59,12.26,2.74,16.79,3.46,14.28,2.28,27.94,2.1,42.13.92,3.86-.32,7.52-.88,10.97-1.69,7.03-1.63,13.41-3.33,19.14-5.08,1.51-.47,3.07-.98,4.68-1.55,1.49-.53,2.98-1.14,4.45-1.82,3.01-1.38,6.06-2.75,9.17-4.11.76-.33,1.48-.73,2.16-1.2,1.06-.73,2.15-.67,3.22-1.45,1.25-.9,2.73-1.73,4.42-2.5,1.88-.85,3.37-1.65,4.46-2.42,2.3-1.61,4.85-3.33,7.65-5.16,2.92-1.91,5.4-3.71,7.44-5.41,5.93-4.94,11.61-10.15,17.04-15.63.88-.89,1.73-1.85,2.56-2.88.54-.67,1.09-1.33,1.64-1.99.54-.65,1.04-1.33,1.5-2.05,1.16-1.81,2.79-3.05,4.12-4.71,3.01-3.76,5.7-7.75,8.06-11.96,1.37-2.44.72-3.24-1.95-2.39-1.03.33-2.1.51-3.22.54-5.37.18-10.9.35-16.06-.83-10.72-2.43-18.51-8.98-23.36-19.63-1.03-2.27-1.9-4.51-2.6-6.74-1.29-4.07-1.64-8.46-1.05-13.18.72-5.79,2.94-11.56,6.65-17.33.06-.1.08-.21.07-.33-.01-.11.04-.19.15-.22.53-.15.81-.51.86-1.09.03-.29.17-.55.39-.73.99-.81,1.84-1.75,2.56-2.8.19-.27.42-.49.7-.65.66-.38,1.23-.85,1.71-1.4.55-.61,1.11-1.14,1.7-1.57,4.56-3.31,9.72-5.66,15.48-7.06,4.57-1.11,9.1-1.28,13.61-.52,8.16,1.37,15.94,4.68,23.34,9.91.78,1.75,1.99,3.43,3.63,5.04,2.83,2.77,6.3,3.56,10.42,2.38,9.58-2.76,11.6-22.66,12.03-23.44.63,8.41.74,17,.33,25.79-.87,18.95-5.1,37.04-12.68,54.26-3.15,7.15-6.64,14.6-10.52,21.34-9.27,16.1-20.89,30.22-34.85,42.35-9.33,8.11-18.17,14.52-26.5,19.25-4.72,2.67-9.93,5.36-15.64,8.05-6.13,2.89-11.6,5.15-16.39,6.78-25.33,8.57-50.56,11.66-75.69,9.25-19.79-1.89-39.78-7.36-59.99-16.41-8.97-4.01-18.09-9.95-26.51-15.83-9.35-6.53-17.84-14.8-25.81-23.04-4.07-4.21-7.69-8.44-10.85-12.67-12.76-17.11-22.36-35.91-28.79-56.41-3.05-9.73-5.06-19.21-6.03-28.43-1.3-12.44-1.92-26.02-.05-40.41Zm301.54,62.23c5.38-3.67,6.69-11.13,2.92-16.66-3.77-5.53-11.2-7.03-16.58-3.36-5.38,3.67-6.69,11.13-2.92,16.66,3.77,5.53,11.2,7.03,16.58,3.36Z"/>
  <path class="cls-11" d="m668.29,349.83c-2.8,1.94-5.85,3.46-9.16,4.56-8.7,2.89-17.3,4.74-25.79,5.57-5.61.55-11.11,1.73-16.7,1.85-7.31.15-14.89.18-22.75.08-5.47-.07-10.88-.31-16.23-.72-5.77-.44-11.18-.86-16.22-1.27-2.96-.23-6.05-.54-9.26-.93-1.89-.23-4.05-.67-6.46-1.34-2.15-.59-4.31-1.05-6.48-1.4-2.91-8.15,1.79-14.77,9.17-17.81,6.76-2.78,14.74-4.69,22.72-7.54-.31.51.02.68.98.51,18.53-3.17,35.96-4.15,52.28-2.92,17.22,1.29,31.85,8.41,43.9,21.36Z"/>
  <path class="cls-12" d="m129.13,328.71l9.98,6.05c-1.49,3.71-3,6.4-4.51,8.09-3.13,3.46-7.99,7.41-14.59,11.86-1.82,1.23-3.99,2.37-6.51,3.44-2.27.95-4.44,2.02-6.49,3.2-1.79,1.02-3.74,1.39-5.39,2.73-.3.25-.64.37-1.03.37-.54.01-.97.21-1.3.62-.34.42-.75.75-1.24,1-2.11,1.09-4.21,1.93-6.28,2.54-1.03.3-1.52.76-2.33,1.35-.3.21-.63.34-.99.37l-3.3.32c-.21.02-.36.13-.43.33-.05.13-.13.21-.25.24-1.37.32-2.69.63-3.98.93-1.21.29-2.42.69-3.63,1.21-1.17.49-2.65.91-4.45,1.26-5.38,1.04-10.85,1.77-16.4,2.18-1.92.14-3.65.35-5.2.62-1.72.3-3.45.57-5.18.8-.85.11-2.35.11-4.49,0-1.54-.09-3.06.06-4.55.44-3.17-.11-5.48-.56-6.95-1.35-.79-.42-1.46-.7-2.02-.84-.91-.22-1.38-.34-1.41-.35-10.35-3.86-18.2-10.52-23.56-19.97-2.35-4.15-2.96-7.97-1.84-11.47,2.07,2.85,5.06,4.24,8.96,4.17,4.05,2.93,8.84,4.7,14.37,5.31,8.53.93,16.08,1.25,22.64.96,5.42-.23,13.09-1.31,23.01-3.23,4.66-.9,9.57-2.22,14.72-3.97,4.81-1.63,9.28-3.2,13.42-4.71,4.99-1.84,10.81-4.5,17.45-7.98,1.4-.73,3.71-1.76,6.94-3.09,2.33-.95,4.6-2.09,6.81-3.42Z"/>
  <path class="cls-13" d="m139.11,334.76c5.16,9.93,3.21,18.26-5.85,24.97-2.05,1.53-5.14,3.27-9.26,5.23-9.43,4.49-18.61,8.33-27.55,11.52-4.85,1.73-9.51,3.8-13.97,6.21-.21.11-.43.16-.66.15h-.35c.02-.14.02-.26,0-.37-.05-.22-.18-.32-.41-.31-6.78.29-13.52.33-20.22.12-3.29-.1-6.46-.94-9.72-.92-.36,0-.69-.18-.88-.48-.2-.31-.48-.46-.84-.45-4.51.2-8.78-.39-12.81-1.78,1.49-.38,3.01-.53,4.55-.44,2.14.12,3.64.12,4.49,0,1.73-.23,3.46-.5,5.18-.8,1.55-.27,3.28-.48,5.2-.62,5.55-.41,11.02-1.14,16.4-2.18,1.8-.35,3.28-.77,4.45-1.26,1.21-.52,2.42-.92,3.63-1.21,1.29-.3,2.61-.61,3.98-.93.12-.03.2-.11.25-.24.07-.2.22-.31.43-.33l3.3-.32c.36-.03.69-.16.99-.37.81-.59,1.3-1.05,2.33-1.35,2.07-.61,4.17-1.45,6.28-2.54.49-.25.9-.58,1.24-1,.33-.41.76-.61,1.3-.62.39,0,.73-.12,1.03-.37,1.65-1.34,3.6-1.71,5.39-2.73,2.05-1.18,4.22-2.25,6.49-3.2,2.52-1.07,4.69-2.21,6.51-3.44,6.6-4.45,11.46-8.4,14.59-11.86,1.51-1.69,3.02-4.38,4.51-8.09Z"/>
  <path class="cls-12" d="m668.29,349.83c2.61,2.05,5.79,2.36,9.54.91.69,2.89.19,5.83-1.52,8.81-5.28,9.23-12.57,15.98-21.87,20.27-2.45,1.13-5.86,2.42-10.25,3.87-1.15.38-2.21.61-3.17.68-1.69.13-2.91.98-4.57,1.26-2.79.49-5.69.81-8.68.98-1,.05-1.75.57-2.83.65-4.65.34-9.73.42-15.24.23-1.34-.05-2.71-.25-4.11-.62-1.3-.33-2.61-.47-3.92-.42-.15.01-.27.14-.36.4-.19.11-.49.08-.91-.08-6.43-2.42-12.56-4.78-18.41-7.08-.05-.02-5.32-1.97-15.83-5.86-6.43-2.38-12.38-5-17.86-7.87-4.05-2.13-7.07-5.37-9.06-9.73,2.17.35,4.33.81,6.48,1.4,2.41.67,4.57,1.11,6.46,1.34,3.21.39,6.3.7,9.26.93,5.04.41,10.45.83,16.22,1.27,5.35.41,10.76.65,16.23.72,7.86.1,15.44.07,22.75-.08,5.59-.12,11.09-1.3,16.7-1.85,8.49-.83,17.09-2.68,25.79-5.57,3.31-1.1,6.36-2.62,9.16-4.56Z"/>
  <path class="cls-15" d="m299.19,387.74l-6.05-5.38c-.77-.63-1.46-1.35-2.06-2.14-.82-1.08-1.43-1.84-1.84-2.28-5.86-6.32-11.65-18.09-1.92-23.98,4.81-2.92,11.05-.95,14.07,3.42,1.43,2.08,2.98,4.14,4.63,6.19,10.43,12.89,26.23,16.67,42.33,14.04,13.18-2.15,22.03-9.87,29.18-20.89,4.1-6.33,13.36-5.36,16.87.78,5.04,8.82-1.12,17.55-7.43,23.7-13.94,13.57-30.43,20.08-49.46,19.53-9.85-.28-19.7-2.68-29.54-7.19-1.67-.77-4.6-2.7-8.78-5.8Z"/>
  <ellipse class="cls-11" cx="459.06" cy="377.17" rx="11.8" ry="12.12" transform="translate(-132.71 324.28) rotate(-34.3)"/>
  <path class="cls-12" d="m293.14,382.36l6.05,5.38c-2.35-1.49-4.37-3.28-6.05-5.38Z"/>
  <path class="cls-11" d="m148.92,396.26c.06.03.11.08.14.15,1.25,2.97,1.74,6.23,1.47,9.78-.29,3.81-1.91,6.9-4.84,9.27-1.8,1.46-3.65,2.66-5.56,3.59-11.4,5.6-24.24,10.92-38.51,15.96-6.54,2.32-15.56,3.29-21.47-1.17-3.17-2.39-5.01-5.48-5.53-9.26-1.48-10.76,7.16-16.18,15.6-20.18,10.07-4.77,20.94-9.45,32.61-14.05,5.09-2.01,11.65-3.22,16.82-2.18,4.14.83,7.2,3.49,9.18,7.99.02.05.05.08.09.1Z"/>
  <path class="cls-11" d="m529.46,404.77c1.08-4.7,3.35-8.22,6.81-10.56,4.65-3.14,10.97-2.5,16.05-.93,14.16,4.38,28.11,9.66,41.84,15.83,7.42,3.33,14.45,10.19,12.36,19.29-2.24,9.74-11.91,10.99-20.52,9.34-5.99-1.15-11.9-2.73-17.72-4.76-10-3.47-19.6-7.19-28.79-11.16-6.72-2.89-11.8-9.37-10.03-17.05Z"/>
  <path class="cls-11" d="m79.63,541.75c-1.15,2.86-2.75,5.1-4.8,6.72-1.94,1.53-3.99,2.19-6.14,1.98-2.24-.21-4.07-1.27-5.49-3.17-2.24-3.01-3.76-5.58-4.55-7.71-.51-1.37-1-2.78-1.46-4.22-.44-1.36-.77-2.81-1-4.36-.75-5.23-.97-9.26-.66-12.07.23-2.07.42-4.16.57-6.29.14-2.04.57-4.05,1.28-6.03,1.75-4.91,3.54-9.24,5.37-13.01,3.17-6.55,8.29-13.53,15.36-20.95,5.2-5.46,11.11-9.66,17.74-12.6.43-.19.68-.67.75-1.42,9.13-1.81,18.21-4.5,27.22-8.07,7.59-3.01,15.19-6.01,22.8-9,1-.39,3.17-.79,6.52-1.2,5.89-.71,11.56,1.18,15.02,6.14,5.3,7.6,4.54,17.2-.8,24.33-5.66,7.55-13.27,11.44-22.84,11.67-5.29.13-10.6.28-15.93.44-6.96.21-13.71,1.76-19.99,5.11-13.06,6.97-22.36,17.14-27.91,30.5-1.5,3.63-2.33,7.32-2.49,11.08-.18,4.14.3,8.18,1.43,12.13Z"/>
  <path class="cls-11" d="m584.81,460.86c4.53,3.42,8.94,6.62,13.22,9.61,2.97,2.07,6.37,5.68,10.2,10.82,6.17,8.27,10.74,17.14,13.73,26.6.57,1.82.64,3.69.85,5.55.11,1.03.33,2.06.64,3.09.29.97.48,2.06.55,3.28.26,4.35.32,8.38-.92,12.06-.71,2.1-.15,4.27-1.49,6.23-.39.57-.68,1.2-.85,1.87-.91,3.62-3.03,6.49-6.34,8.62-3.47,2.23-6.71,1.64-9.73-1.77-2.06-2.33-3.49-4.66-4.28-6.99,2.29-11.59.31-22.19-5.94-31.8-5.37-8.27-13.15-14.84-23.34-19.71-3.97-1.89-8.72-3.19-14.24-3.89-7.05-.89-13.82-1.66-20.33-2.33-9.85-1-18.02-4.91-24.5-11.74-3.09-3.25-4.73-6.9-4.94-10.95-.2-4.05.89-7.56,3.26-10.55,3.07-3.85,7.5-5.65,13.3-5.38,3.4.16,6.15.62,8.24,1.38,13.55,4.92,26.96,9.32,40.24,13.19,2.65.77,6.87,1.7,12.67,2.81Z"/>
  <path class="cls-11" d="m581.04,538.82c-1.56,4.39-4.17,7.75-7.82,10.08-1.21.77-2.48,1.31-3.82,1.64-1.81.44-3.3,1.54-5.21,1.65-2.62.15-6.5.53-8.9-.66-.97-.49-1.98-.83-3.03-1.03-2.91-.57-5.19-2.37-8.05-3.56-.91-3.85-2.85-6.9-5.81-9.14-4.53-3.43-10.5-3.36-13.44,1.9-.83,1.47-1.73,2.93-2.71,4.37-3.95,5.77-13.67,3.32-18.52.6-3.46-1.93-7.04-4.55-10.75-7.84-8.6-7.65-15.49-15.25-20.67-22.78-2.3-3.35-4.43-7.52-4.72-11.64-.32-4.62.99-8.84,3.94-12.65,5.6-7.25,15.37-8.81,22.86-3.2,2.7,2.03,5.29,4.07,7.77,6.12,9.09,7.56,20.78,11.2,32.75,11.71,3.98.17,7.9.46,11.77.89,9.63,1.05,17.72,4.52,25.36,10.82,3.35,2.76,5.79,6.05,7.31,9.88,1.61,4.05,2.18,8.33,1.69,12.84Z"/>
  <path class="cls-11" d="m145.68,540.51c-.8-1.83-1.54-3.6-2.22-5.29-1.58-3.94-1.81-9.04-1.03-12.83.66-3.19,2.17-6.75,4.54-10.7.68-1.12,2.88-3.31,6.6-6.58,4.19-1.24,8.31-2.79,12.35-4.66,3.34-1.55,6.41-3.39,9.22-5.52,2.88-2.19,5.8-4.33,8.75-6.44,6.25-4.44,14.3-5.86,20.8-.85,4.87,3.75,6.89,9.13,6.07,16.13-.23,2.01-.78,3.66-1.65,4.93-.19.27-.32.57-.39.89-.14.62-.46,1.33-.97,2.14-2.03,3.17-4.12,6.03-6.28,8.56-7.92,9.25-17.49,17.33-27.93,23.02-5.88,3.21-13.25,4.72-19.34,2-2.29-1.03-5.13-2.63-8.52-4.8Z"/>
  <path class="cls-12" d="m489.27,562.14l1.67,5.39c.1.34.26.65.49.92,1.27,1.56,1.09,3.37,1.64,5.1,1.14,3.53,1.67,9.09.3,12.62-.63,1.64-.68,4.54-1.84,5.7-1.01,1.01-1.1,2.23-2.17,3.23-2.43,2.29-5.13,3.5-8.09,3.63-.68.03-1.3.39-1.89.67-.43.16-.83.23-1.2.21-.27-.01-.51-.11-.72-.29-2.72-2.48-5.31-4.77-7.77-6.86-2.58-2.19-5.47-5.64-8.66-10.34-3.42-5.03-6.65-9.92-9.69-14.66-3.72-5.79-7.04-11.72-9.97-17.78-1.91-3.97-3.97-8.58-6.16-13.82-1.91-4.57-3.9-9.22-5.98-13.95,1.3-1.51,3.36-2.46,6.17-2.87,8.59-1.23,13.14,4.07,18.35,9.95,5.63,6.35,12.13,13.03,19.48,20.03,4.79,4.55,9.93,8.66,15.43,12.32.31.2.51.47.61.8Z"/>
  <path class="cls-11" d="m238.54,599.45c-4.09,6.33-8.05,11.63-11.87,15.9-9.02,10.09-20.04,17-33.07,20.75-1.57.45-3.22.39-4.9.87-2.96.86-8.91,1.61-11.8-.1-.94-.56-1.9-.61-2.84-1.26-1.93-1.35-3.29-2.96-4.07-4.81-.85-2.02-1.06-3.92-.62-5.7.83-3.33,2.57-5.61,5.21-6.84,2.47-1.15,5.32-1.96,8.56-2.44,1.09-.16,2.12-.51,3.1-1.05,1.37-.77,2.86-.79,4.3-1.46,5.93-2.77,11.02-6.4,15.27-10.91.55-.59.76-1.29.61-2.11-.1-.51-.61-.83-1.11-.7-1.53.41-2.93.28-4.2-.41-4.69-2.53-9.35-6.74-11.04-11.79-.64-1.9-1.61-3.36-1.72-5.48-.22-4.37.11-8.05,1-11.04.56-1.87.73-3.85,1.61-5.58,1.26-2.48,2.61-4.84,4.05-7.08.39-.59.41-1.15.56-1.88,8.23-6.66,14.75-12.41,19.56-17.24,4.96-4.98,10.02-10,15.17-15.07,1.34-1.32,3.62-2.63,6.83-3.92,2.5-1,4.97-1.31,7.41-.94,5.46.83,8.87,3.83,10.23,9.02.59,2.27.7,4.56.32,6.87-.38,2.29-1.09,4.66-2.13,7.09-5.25,12.25-10.57,26.11-13.74,37.82-1.77,6.55-2,13.05-.68,19.49Z"/>
  <path class="cls-11" d="m429.23,521.91c2.08,4.73,4.07,9.38,5.98,13.95,2.19,5.24,4.25,9.85,6.16,13.82,2.93,6.06,6.25,11.99,9.97,17.78,3.04,4.74,6.27,9.63,9.69,14.66,3.19,4.7,6.08,8.15,8.66,10.34,2.46,2.09,5.05,4.38,7.77,6.86.21.18.45.28.72.29.37.02.77-.05,1.2-.21-.13,1.13-.03,1.93.32,2.4,6.12,8.28,14.87,12.92,24.44,16.13,2.31.77,4.4,2.23,6.28,4.39,1.51,1.72,2.26,3.69,2.25,5.9-.01,3.11-.95,5.57-2.82,7.37-1.63,1.57-3.87,2.7-6.72,3.38-3.23.77-6.13.84-8.72.19-1.23-.31-2.46-.54-3.69-.69-1.23-.15-2.42-.41-3.56-.78-15.48-5-28.97-14.89-37.81-28.65-2.69-4.19-5.11-8.41-7.26-12.65-.1-.19-.27-.32-.52-.38-.43-8.18-1.96-16.19-4.59-24.02-4.03-11.96-6.76-19.88-8.21-23.76-3.31-8.87-5.91-18.03.46-26.32Z"/>
  <path class="cls-11" d="m305.56,547.29c1.18,7-1.37,14.42-3.75,20.99-2.65,7.33-5.88,15.26-9.69,23.78-2.29,5.13-5.6,10.84-10.07,14.17-4.91,3.66-12.36,2.45-16.49-1.37-5.18-4.8-6.65-10.67-4.42-17.6,4.1-12.73,9.03-25.86,14.77-38.27,3.77-8.14,9.71-13.89,19.21-12.11,5.22.97,9.53,5.05,10.44,10.41Z"/>
  <path class="cls-11" d="m419.52,595.27c1.33,7.61-2.9,16.25-11.25,17.24-5.67.67-10.52-1.46-14.55-6.39-2.96-3.61-5.43-7.49-7.4-11.65-5.63-11.83-9.94-24.07-12.94-36.7-1.92-8.07,1.15-17.26,10.2-19.27,7.25-1.61,12.73.73,16.43,7,1.95,3.31,3.8,6.7,5.18,10.24,3.55,9.11,7.22,18.45,11.01,28.03,1.55,3.9,2.65,7.73,3.32,11.5Z"/>
  <path class="cls-11" d="m369.82,611.42c.6,6.13.96,12.09,1.09,17.86.03,1.6.2,3.2.51,4.8.31,1.63.26,3.16-.13,4.6-.36,1.34-.53,2.51-.51,3.52.14,6.37-1.63,13.64-5.31,21.8-3.07,6.83-7.33,12.45-12.79,16.86-7.93-9.13-13.46-19.55-16.59-31.26-2.74-10.23-4.34-20.52-4.79-30.88-.43-9.64-.56-19.03-.4-28.18.11-6.8,1.17-13.72,1.49-20.68.15-3.05-2.68-3.05-4.57-4.44-.27-.19-.39-.45-.36-.78l.13-1.5c1.35-5.37,1.55-9.58,6.56-13.58,2.45-1.95,5.19-2.3,8.23-1.04,4.67,1.94,6.89,8.91,7.8,13.48,2.95,14.94,8.16,29.18,15.63,42.71.78,1.41,2.12,3.65,4.01,6.71Z"/>
  <path class="cls-12" d="m327.59,563.14l-.13,1.5c-.03.33.09.59.36.78,1.89,1.39,4.72,1.39,4.57,4.44-.32,6.96-1.38,13.88-1.49,20.68-.16,9.15-.03,18.54.4,28.18.45,10.36,2.05,20.65,4.79,30.88,3.13,11.71,8.66,22.13,16.59,31.26-4.29,2.93-8.9,4.3-13.82,4.12-4.19-.15-8.05-1.43-11.57-3.84-10.61-7.26-17.03-20.82-19.19-33.09-.62-3.54-1.64-6.68-1.76-10.47-.3-9.27.08-16.18,1.13-20.75.51-2.22.77-4.38.78-6.48,0-.09-.04-.17-.12-.23-.07-.05-.16-.08-.25-.1l-.35-.13c-.27-.09-.32-.26-.15-.49,7.09-9.75,11.98-19.09,14.69-28.04,1.84-6.07,3.68-12.14,5.52-18.22Z"/>
</svg>